M48
METRIC,LZ,000.000
;FILE_FORMAT=3:3
;TYPE=PLATED
;Layer: PTH_Through
;EasyEDA v6.5.1, 2022-07-02 21:29:07
;a67cddfb3fce44daa9051d46cbbcc19f,10
;Gerber Generator version 0.2
;Holesize 1 = 0.508 mm
T01C0.508
;Holesize 2 = 1.101 mm
T02C1.101
;Holesize 3 = 2.101 mm
T03C2.101
;Holesize 4 = 3.000 mm
T04C3.000
%
G05
G90
T01
X020000Y022750
X018409Y022091
X017750Y020500
X018409Y018909
X020000Y018250
X021591Y018909
X022250Y020500
X021591Y022091
X080000Y022750
X078409Y022091
X077750Y020500
X078409Y018909
X080000Y018250
X081591Y018909
X082250Y020500
X081591Y022091
T02
X006500Y006355
X009000Y006355
X011000Y006355
X013500Y006355
X026500Y006355
X029000Y006355
X031000Y006355
X033500Y006355
X046500Y006355
X049000Y006355
X051000Y006355
X053500Y006355
X066500Y006355
X069000Y006355
X071000Y006355
X073500Y006355
X086500Y006355
X089000Y006355
X091000Y006355
X093500Y006355
X013500Y033645
X011000Y033645
X009000Y033645
X006500Y033645
X033500Y033645
X031000Y033645
X029000Y033645
X026500Y033645
X053500Y033645
X051000Y033645
X049000Y033645
X046500Y033645
X073500Y033645
X071000Y033645
X069000Y033645
X066500Y033645
X093500Y033645
X091000Y033645
X089000Y033645
X086500Y033645
T03
X017000Y003645
X003000Y003645
X037000Y003645
X023000Y003645
X057000Y003645
X043000Y003645
X077000Y003645
X063000Y003645
X097000Y003645
X083000Y003645
X003000Y036355
X017000Y036355
X023000Y036355
X037000Y036355
X043000Y036355
X057000Y036355
X063000Y036355
X077000Y036355
X083000Y036355
X097000Y036355
T04
X020000Y020500
X080000Y020500
M30
