G04 Layer: BottomLayer*
G04 EasyEDA v6.5.1, 2022-07-02 21:29:07*
G04 a67cddfb3fce44daa9051d46cbbcc19f,10*
G04 Gerber Generator version 0.2*
G04 Scale: 100 percent, Rotated: No, Reflected: No *
G04 Dimensions in millimeters *
G04 leading zeros omitted , absolute positions ,4 integer and 5 decimal *
%FSLAX45Y45*%
%MOMM*%

%ADD11C,3.1000*%
%ADD12C,1.7000*%
%ADD13C,6.0000*%
%ADD14C,1.2700*%

%LPD*%
G36*
X300278Y25908D02*
G01*
X278079Y26822D01*
X256743Y29362D01*
X235610Y33629D01*
X214934Y39471D01*
X194767Y46939D01*
X175209Y55981D01*
X156464Y66548D01*
X138582Y78536D01*
X121716Y91846D01*
X105918Y106476D01*
X91338Y122326D01*
X78028Y139242D01*
X66141Y157124D01*
X55626Y175920D01*
X46634Y195478D01*
X39217Y215696D01*
X33426Y236423D01*
X29260Y257505D01*
X26771Y278892D01*
X25908Y300685D01*
X25908Y3699306D01*
X26822Y3721912D01*
X29362Y3743248D01*
X33629Y3764381D01*
X39471Y3785057D01*
X46939Y3805224D01*
X55981Y3824782D01*
X66548Y3843528D01*
X78536Y3861409D01*
X91846Y3878275D01*
X106476Y3894074D01*
X122326Y3908653D01*
X139242Y3921963D01*
X157124Y3933901D01*
X175920Y3944365D01*
X195478Y3953357D01*
X215696Y3960774D01*
X236423Y3966565D01*
X257505Y3970731D01*
X278892Y3973220D01*
X300685Y3974084D01*
X9699294Y3974084D01*
X9721900Y3973169D01*
X9743287Y3970629D01*
X9764369Y3966413D01*
X9785045Y3960520D01*
X9805263Y3953052D01*
X9824770Y3944010D01*
X9843516Y3933444D01*
X9861397Y3921506D01*
X9878314Y3908145D01*
X9894062Y3893515D01*
X9908641Y3877665D01*
X9921951Y3860749D01*
X9933889Y3842867D01*
X9944354Y3824071D01*
X9953345Y3804513D01*
X9960762Y3784295D01*
X9966553Y3763568D01*
X9970770Y3742486D01*
X9973259Y3721100D01*
X9974072Y3699306D01*
X9974072Y300685D01*
X9973157Y278079D01*
X9970617Y256743D01*
X9966401Y235610D01*
X9960508Y214934D01*
X9953040Y194767D01*
X9943998Y175209D01*
X9933482Y156464D01*
X9921494Y138582D01*
X9908133Y121716D01*
X9893503Y105918D01*
X9877704Y91338D01*
X9860788Y78028D01*
X9842855Y66141D01*
X9824059Y55626D01*
X9804501Y46634D01*
X9784334Y39217D01*
X9763607Y33426D01*
X9742474Y29260D01*
X9721088Y26771D01*
X9699294Y25908D01*
G37*

%LPC*%
G36*
X8139785Y3719372D02*
G01*
X8216138Y3719372D01*
X8216138Y3795623D01*
X8202930Y3788156D01*
X8187740Y3777335D01*
X8173770Y3765042D01*
X8161121Y3751376D01*
X8149945Y3736492D01*
G37*
G36*
X1616151Y204368D02*
G01*
X1616151Y280670D01*
X1539798Y280670D01*
X1540306Y279501D01*
X1549908Y263499D01*
X1561084Y248615D01*
X1573733Y234950D01*
X1587703Y222656D01*
X1602892Y211836D01*
G37*
G36*
X1783842Y204368D02*
G01*
X1797100Y211836D01*
X1812239Y222656D01*
X1826260Y234950D01*
X1838909Y248615D01*
X1850085Y263499D01*
X1859686Y279501D01*
X1860194Y280670D01*
X1783842Y280670D01*
G37*
G36*
X216154Y204368D02*
G01*
X216154Y280670D01*
X139801Y280670D01*
X149910Y263499D01*
X161086Y248615D01*
X173736Y234950D01*
X187756Y222656D01*
X202946Y211836D01*
G37*
G36*
X6216142Y204368D02*
G01*
X6216142Y280670D01*
X6139789Y280670D01*
X6149898Y263499D01*
X6161125Y248615D01*
X6173774Y234950D01*
X6187744Y222656D01*
X6202934Y211836D01*
G37*
G36*
X4216146Y204368D02*
G01*
X4216146Y280670D01*
X4139793Y280670D01*
X4149902Y263499D01*
X4161078Y248615D01*
X4173778Y234950D01*
X4187748Y222656D01*
X4202938Y211836D01*
G37*
G36*
X2216150Y204368D02*
G01*
X2216150Y280670D01*
X2139797Y280670D01*
X2149906Y263499D01*
X2161082Y248615D01*
X2173732Y234950D01*
X2187752Y222656D01*
X2202942Y211836D01*
G37*
G36*
X3616147Y204368D02*
G01*
X3616147Y280670D01*
X3539794Y280670D01*
X3540302Y279501D01*
X3549904Y263499D01*
X3561079Y248615D01*
X3573729Y234950D01*
X3587750Y222656D01*
X3602888Y211836D01*
G37*
G36*
X7616139Y204368D02*
G01*
X7616139Y280670D01*
X7539786Y280670D01*
X7540294Y279501D01*
X7549896Y263499D01*
X7561072Y248615D01*
X7573721Y234950D01*
X7587742Y222656D01*
X7602880Y211836D01*
G37*
G36*
X5616143Y204368D02*
G01*
X5616143Y280670D01*
X5539790Y280670D01*
X5540298Y279501D01*
X5549900Y263499D01*
X5561076Y248615D01*
X5573725Y234950D01*
X5587746Y222656D01*
X5602884Y211836D01*
G37*
G36*
X8216138Y204368D02*
G01*
X8216138Y280670D01*
X8139785Y280670D01*
X8149945Y263499D01*
X8161121Y248615D01*
X8173770Y234950D01*
X8187740Y222656D01*
X8202930Y211836D01*
G37*
G36*
X9616135Y204368D02*
G01*
X9616135Y280670D01*
X9539782Y280670D01*
X9549892Y263499D01*
X9561068Y248615D01*
X9573717Y234950D01*
X9587738Y222656D01*
X9602927Y211836D01*
G37*
G36*
X3783837Y204368D02*
G01*
X3797096Y211836D01*
X3812235Y222656D01*
X3826256Y234950D01*
X3838905Y248615D01*
X3850081Y263499D01*
X3859682Y279501D01*
X3860190Y280670D01*
X3783837Y280670D01*
G37*
G36*
X2383840Y204368D02*
G01*
X2397099Y211836D01*
X2412288Y222656D01*
X2426258Y234950D01*
X2438908Y248615D01*
X2450084Y263499D01*
X2460244Y280670D01*
X2383840Y280670D01*
G37*
G36*
X6383832Y204368D02*
G01*
X6397091Y211836D01*
X6412280Y222656D01*
X6426250Y234950D01*
X6438900Y248615D01*
X6450076Y263499D01*
X6460236Y280670D01*
X6383832Y280670D01*
G37*
G36*
X5783834Y204368D02*
G01*
X5797092Y211836D01*
X5812231Y222656D01*
X5826252Y234950D01*
X5838901Y248615D01*
X5850077Y263499D01*
X5859678Y279501D01*
X5860186Y280670D01*
X5783834Y280670D01*
G37*
G36*
X7783830Y204368D02*
G01*
X7797088Y211836D01*
X7812278Y222656D01*
X7826248Y234950D01*
X7838897Y248615D01*
X7850073Y263499D01*
X7859674Y279501D01*
X7860182Y280670D01*
X7783830Y280670D01*
G37*
G36*
X8383879Y204368D02*
G01*
X8397087Y211836D01*
X8412276Y222656D01*
X8426246Y234950D01*
X8438896Y248615D01*
X8450072Y263499D01*
X8460232Y280670D01*
X8383879Y280670D01*
G37*
G36*
X4383836Y204368D02*
G01*
X4397095Y211836D01*
X4412284Y222656D01*
X4426254Y234950D01*
X4438904Y248615D01*
X4450080Y263499D01*
X4460240Y280670D01*
X4383836Y280670D01*
G37*
G36*
X9783826Y204368D02*
G01*
X9797084Y211836D01*
X9812274Y222656D01*
X9826244Y234950D01*
X9838893Y248615D01*
X9850069Y263499D01*
X9860229Y280670D01*
X9783826Y280670D01*
G37*
G36*
X1539951Y448360D02*
G01*
X1616151Y448360D01*
X1616151Y524560D01*
X1610868Y521919D01*
X1595170Y511911D01*
X1580591Y500380D01*
X1567230Y487375D01*
X1555292Y473049D01*
X1544929Y457606D01*
G37*
G36*
X140004Y448360D02*
G01*
X216154Y448360D01*
X216154Y524560D01*
X210921Y521919D01*
X195173Y511911D01*
X180594Y500380D01*
X167233Y487375D01*
X155346Y473049D01*
X144932Y457606D01*
G37*
G36*
X383844Y448360D02*
G01*
X460044Y448360D01*
X455117Y457606D01*
X444703Y473049D01*
X432765Y487375D01*
X419404Y500380D01*
X404825Y511911D01*
X389128Y521919D01*
X383844Y524560D01*
G37*
G36*
X1783842Y448360D02*
G01*
X1859991Y448360D01*
X1855063Y457606D01*
X1844700Y473049D01*
X1832762Y487375D01*
X1819402Y500380D01*
X1804822Y511911D01*
X1789074Y521919D01*
X1783842Y524560D01*
G37*
G36*
X5539994Y448360D02*
G01*
X5616143Y448360D01*
X5616143Y524560D01*
X5610910Y521919D01*
X5595162Y511911D01*
X5580583Y500380D01*
X5567222Y487375D01*
X5555284Y473049D01*
X5544921Y457606D01*
G37*
G36*
X8139988Y448360D02*
G01*
X8216138Y448360D01*
X8216138Y524560D01*
X8210905Y521919D01*
X8195208Y511911D01*
X8180578Y500380D01*
X8167268Y487375D01*
X8155330Y473049D01*
X8144916Y457606D01*
G37*
G36*
X6139992Y448360D02*
G01*
X6216142Y448360D01*
X6216142Y524560D01*
X6210909Y521919D01*
X6195212Y511911D01*
X6180582Y500380D01*
X6167272Y487375D01*
X6155334Y473049D01*
X6144920Y457606D01*
G37*
G36*
X6383832Y448360D02*
G01*
X6460032Y448360D01*
X6455105Y457606D01*
X6444691Y473049D01*
X6432753Y487375D01*
X6419443Y500380D01*
X6404813Y511911D01*
X6389116Y521919D01*
X6383832Y524560D01*
G37*
G36*
X7783830Y448360D02*
G01*
X7860030Y448360D01*
X7855051Y457606D01*
X7844688Y473049D01*
X7832750Y487375D01*
X7819390Y500380D01*
X7804810Y511911D01*
X7789113Y521919D01*
X7783830Y524560D01*
G37*
G36*
X2383840Y448360D02*
G01*
X2460040Y448360D01*
X2455113Y457606D01*
X2444699Y473049D01*
X2432761Y487375D01*
X2419400Y500380D01*
X2404821Y511911D01*
X2389124Y521919D01*
X2383840Y524560D01*
G37*
G36*
X4383836Y448360D02*
G01*
X4460036Y448360D01*
X4455109Y457606D01*
X4444695Y473049D01*
X4432757Y487375D01*
X4419447Y500380D01*
X4404817Y511911D01*
X4389120Y521919D01*
X4383836Y524560D01*
G37*
G36*
X9539986Y448360D02*
G01*
X9616135Y448360D01*
X9616135Y524560D01*
X9610902Y521919D01*
X9595154Y511911D01*
X9580575Y500380D01*
X9567214Y487375D01*
X9555327Y473049D01*
X9544913Y457606D01*
G37*
G36*
X4139996Y448360D02*
G01*
X4216146Y448360D01*
X4216146Y524560D01*
X4210913Y521919D01*
X4195216Y511911D01*
X4180586Y500380D01*
X4167276Y487375D01*
X4155338Y473049D01*
X4144924Y457606D01*
G37*
G36*
X7539990Y448360D02*
G01*
X7616139Y448360D01*
X7616139Y524560D01*
X7610906Y521919D01*
X7595158Y511911D01*
X7580579Y500380D01*
X7567218Y487375D01*
X7555280Y473049D01*
X7544917Y457606D01*
G37*
G36*
X2140000Y448360D02*
G01*
X2216150Y448360D01*
X2216150Y524560D01*
X2210917Y521919D01*
X2195169Y511911D01*
X2180590Y500380D01*
X2167229Y487375D01*
X2155342Y473049D01*
X2144928Y457606D01*
G37*
G36*
X9783826Y448360D02*
G01*
X9860026Y448360D01*
X9855098Y457606D01*
X9844684Y473049D01*
X9832746Y487375D01*
X9819386Y500380D01*
X9804806Y511911D01*
X9789109Y521919D01*
X9783826Y524560D01*
G37*
G36*
X5783834Y448360D02*
G01*
X5860034Y448360D01*
X5855055Y457606D01*
X5844692Y473049D01*
X5832754Y487375D01*
X5819394Y500380D01*
X5804814Y511911D01*
X5789066Y521919D01*
X5783834Y524560D01*
G37*
G36*
X3539947Y448360D02*
G01*
X3616147Y448360D01*
X3616147Y524560D01*
X3610914Y521919D01*
X3595166Y511911D01*
X3580587Y500380D01*
X3567226Y487375D01*
X3555288Y473049D01*
X3544925Y457606D01*
G37*
G36*
X3783837Y448360D02*
G01*
X3859987Y448360D01*
X3855059Y457606D01*
X3844696Y473049D01*
X3832758Y487375D01*
X3819398Y500380D01*
X3804818Y511911D01*
X3789070Y521919D01*
X3783837Y524560D01*
G37*
G36*
X8383879Y448360D02*
G01*
X8460028Y448360D01*
X8455101Y457606D01*
X8444687Y473049D01*
X8432749Y487375D01*
X8419439Y500380D01*
X8404809Y511911D01*
X8389112Y521919D01*
X8383879Y524560D01*
G37*
G36*
X6500977Y499973D02*
G01*
X7298994Y499973D01*
X7300010Y500989D01*
X7300010Y521411D01*
X7300315Y523849D01*
X7301128Y526084D01*
X7301128Y592124D01*
X7300315Y594410D01*
X7300010Y596798D01*
X7300010Y674166D01*
X7300315Y676605D01*
X7301128Y678891D01*
X7301128Y745032D01*
X7300315Y747268D01*
X7300010Y749706D01*
X7300010Y798982D01*
X7298994Y799998D01*
X6500977Y799998D01*
X6500012Y798982D01*
X6500012Y500989D01*
G37*
G36*
X2500985Y499973D02*
G01*
X3299002Y499973D01*
X3300018Y500989D01*
X3300018Y521411D01*
X3300272Y523849D01*
X3301136Y526084D01*
X3301136Y592124D01*
X3300272Y594410D01*
X3300018Y596798D01*
X3300018Y674166D01*
X3300272Y676605D01*
X3301136Y678891D01*
X3301136Y745032D01*
X3300272Y747268D01*
X3300018Y749706D01*
X3300018Y798982D01*
X3299002Y799998D01*
X2500985Y799998D01*
X2500020Y798982D01*
X2500020Y500989D01*
X2500172Y500176D01*
G37*
G36*
X8501024Y499973D02*
G01*
X9298990Y499973D01*
X9300006Y500989D01*
X9300006Y521411D01*
X9300311Y523849D01*
X9301124Y526084D01*
X9301124Y592124D01*
X9300311Y594410D01*
X9300006Y596798D01*
X9300006Y674166D01*
X9300311Y676605D01*
X9301124Y678891D01*
X9301124Y745032D01*
X9300311Y747268D01*
X9300006Y749706D01*
X9300006Y798982D01*
X9298990Y799998D01*
X8501024Y799998D01*
X8500008Y798982D01*
X8500008Y500989D01*
G37*
G36*
X500989Y499973D02*
G01*
X1299006Y499973D01*
X1300022Y500989D01*
X1300022Y521411D01*
X1300276Y523849D01*
X1301140Y526084D01*
X1301140Y592124D01*
X1300276Y594360D01*
X1300022Y596798D01*
X1300022Y674166D01*
X1300276Y676605D01*
X1301140Y678891D01*
X1301140Y745032D01*
X1300276Y747268D01*
X1300022Y749706D01*
X1300022Y798982D01*
X1299006Y799998D01*
X500989Y799998D01*
X500024Y798982D01*
X500024Y500989D01*
X500176Y500176D01*
G37*
G36*
X4500981Y499973D02*
G01*
X5298998Y499973D01*
X5300014Y500989D01*
X5300014Y521411D01*
X5300268Y523849D01*
X5301132Y526084D01*
X5301132Y592124D01*
X5300268Y594360D01*
X5300014Y596798D01*
X5300014Y674166D01*
X5300268Y676605D01*
X5301132Y678891D01*
X5301132Y745032D01*
X5300268Y747268D01*
X5300014Y749706D01*
X5300014Y798982D01*
X5298998Y799998D01*
X4500981Y799998D01*
X4500016Y798982D01*
X4500016Y500989D01*
G37*
G36*
X1398828Y536194D02*
G01*
X1404416Y538886D01*
X1416304Y546608D01*
X1427124Y555853D01*
X1436674Y566369D01*
X1444802Y578002D01*
X1449324Y586638D01*
X1398828Y586638D01*
G37*
G36*
X3398824Y536194D02*
G01*
X3404412Y538886D01*
X3416300Y546608D01*
X3427120Y555853D01*
X3436670Y566369D01*
X3444798Y578002D01*
X3449320Y586638D01*
X3398824Y586638D01*
G37*
G36*
X9398863Y536194D02*
G01*
X9404400Y538886D01*
X9416338Y546608D01*
X9427159Y555853D01*
X9436709Y566369D01*
X9444837Y578002D01*
X9449308Y586638D01*
X9398863Y586638D01*
G37*
G36*
X5398871Y536194D02*
G01*
X5404408Y538886D01*
X5416346Y546608D01*
X5427116Y555853D01*
X5436717Y566369D01*
X5444845Y578002D01*
X5449316Y586638D01*
X5398871Y586638D01*
G37*
G36*
X7398867Y536194D02*
G01*
X7404404Y538886D01*
X7416342Y546608D01*
X7427163Y555853D01*
X7436713Y566369D01*
X7444841Y578002D01*
X7449312Y586638D01*
X7398867Y586638D01*
G37*
G36*
X1398828Y684326D02*
G01*
X1449374Y684326D01*
X1448308Y686765D01*
X1440942Y698906D01*
X1432102Y710031D01*
X1421892Y719937D01*
X1410512Y728421D01*
X1398828Y734974D01*
G37*
G36*
X5398871Y684326D02*
G01*
X5449366Y684326D01*
X5448300Y686765D01*
X5440934Y698906D01*
X5432094Y710031D01*
X5421884Y719937D01*
X5410504Y728421D01*
X5398871Y734974D01*
G37*
G36*
X3398824Y684326D02*
G01*
X3449370Y684326D01*
X3448304Y686765D01*
X3440937Y698906D01*
X3432098Y710031D01*
X3421887Y719937D01*
X3410508Y728421D01*
X3398824Y734974D01*
G37*
G36*
X7398867Y684326D02*
G01*
X7449413Y684326D01*
X7448296Y686765D01*
X7440930Y698906D01*
X7432090Y710031D01*
X7421880Y719937D01*
X7410500Y728421D01*
X7398867Y734974D01*
G37*
G36*
X9398863Y684326D02*
G01*
X9449409Y684326D01*
X9448292Y686765D01*
X9440926Y698906D01*
X9432086Y710031D01*
X9421876Y719937D01*
X9410496Y728421D01*
X9398863Y734974D01*
G37*
G36*
X383844Y204368D02*
G01*
X397103Y211836D01*
X412292Y222656D01*
X426262Y234950D01*
X438912Y248615D01*
X450088Y263499D01*
X460248Y280670D01*
X383844Y280670D01*
G37*
G36*
X8006334Y1724152D02*
G01*
X8031530Y1725625D01*
X8056575Y1729079D01*
X8081314Y1734413D01*
X8105495Y1741678D01*
X8129066Y1750771D01*
X8151875Y1761693D01*
X8173770Y1774291D01*
X8194598Y1788617D01*
X8214309Y1804466D01*
X8232648Y1821789D01*
X8249666Y1840534D01*
X8265159Y1860499D01*
X8279028Y1881632D01*
X8291220Y1903730D01*
X8301685Y1926742D01*
X8310321Y1950516D01*
X8317128Y1974850D01*
X8322005Y1999640D01*
X8324900Y2024735D01*
X8325916Y2050034D01*
X8324900Y2075281D01*
X8322005Y2100376D01*
X8317128Y2125167D01*
X8310321Y2149500D01*
X8301685Y2173274D01*
X8291220Y2196287D01*
X8279028Y2218385D01*
X8265159Y2239518D01*
X8249666Y2259482D01*
X8232648Y2278227D01*
X8214309Y2295550D01*
X8194598Y2311400D01*
X8173770Y2325725D01*
X8151875Y2338374D01*
X8129066Y2349246D01*
X8105495Y2358339D01*
X8081314Y2365603D01*
X8056575Y2370937D01*
X8031530Y2374392D01*
X8006334Y2375865D01*
X7981035Y2375357D01*
X7955889Y2372918D01*
X7930997Y2368550D01*
X7906512Y2362200D01*
X7882636Y2354021D01*
X7859420Y2344013D01*
X7837068Y2332228D01*
X7815681Y2318766D01*
X7795412Y2303678D01*
X7776362Y2287066D01*
X7758633Y2269032D01*
X7742428Y2249678D01*
X7727696Y2229104D01*
X7714640Y2207463D01*
X7703312Y2184857D01*
X7693761Y2161489D01*
X7686040Y2137410D01*
X7680198Y2112822D01*
X7676286Y2087829D01*
X7674356Y2062632D01*
X7674356Y2037384D01*
X7676286Y2012188D01*
X7680198Y1987194D01*
X7686040Y1962607D01*
X7693761Y1938528D01*
X7703312Y1915160D01*
X7714640Y1892554D01*
X7727696Y1870913D01*
X7742428Y1850389D01*
X7758633Y1830984D01*
X7776362Y1812950D01*
X7795412Y1796338D01*
X7815681Y1781251D01*
X7837068Y1767789D01*
X7859420Y1756003D01*
X7882636Y1745996D01*
X7906512Y1737817D01*
X7930997Y1731518D01*
X7955889Y1727098D01*
X7981035Y1724660D01*
G37*
G36*
X700989Y3199993D02*
G01*
X1499006Y3199993D01*
X1500022Y3201009D01*
X1500022Y3499002D01*
X1499006Y3500018D01*
X700989Y3500018D01*
X700024Y3499002D01*
X700024Y3478580D01*
X699719Y3476193D01*
X698855Y3473907D01*
X698855Y3407918D01*
X699719Y3405632D01*
X700024Y3403193D01*
X700024Y3325825D01*
X699719Y3323386D01*
X698855Y3321100D01*
X698855Y3255010D01*
X699719Y3252724D01*
X700024Y3250285D01*
X700024Y3201009D01*
G37*
G36*
X4700981Y3199993D02*
G01*
X5498998Y3199993D01*
X5500014Y3201009D01*
X5500014Y3499002D01*
X5498998Y3500018D01*
X4700981Y3500018D01*
X4700016Y3499002D01*
X4700016Y3478580D01*
X4699711Y3476193D01*
X4698847Y3473907D01*
X4698847Y3407918D01*
X4699711Y3405632D01*
X4700016Y3403193D01*
X4700016Y3325825D01*
X4699711Y3323386D01*
X4698847Y3321100D01*
X4698847Y3255010D01*
X4699711Y3252724D01*
X4700016Y3250285D01*
X4700016Y3201009D01*
X4700168Y3200146D01*
G37*
G36*
X2700985Y3199993D02*
G01*
X3499002Y3199993D01*
X3500018Y3201009D01*
X3500018Y3499002D01*
X3499002Y3500018D01*
X2700985Y3500018D01*
X2700020Y3499002D01*
X2700020Y3478580D01*
X2699715Y3476142D01*
X2698851Y3473907D01*
X2698851Y3407918D01*
X2699715Y3405632D01*
X2700020Y3403193D01*
X2700020Y3325825D01*
X2699715Y3323386D01*
X2698851Y3321100D01*
X2698851Y3255010D01*
X2699715Y3252724D01*
X2700020Y3250285D01*
X2700020Y3201009D01*
G37*
G36*
X6701028Y3199993D02*
G01*
X7498994Y3199993D01*
X7500010Y3201009D01*
X7500010Y3499002D01*
X7498994Y3500018D01*
X6701028Y3500018D01*
X6700012Y3499002D01*
X6700012Y3478580D01*
X6699707Y3476142D01*
X6698843Y3473907D01*
X6698843Y3407918D01*
X6699707Y3405632D01*
X6700012Y3403193D01*
X6700012Y3325825D01*
X6699707Y3323386D01*
X6698843Y3321100D01*
X6698843Y3255010D01*
X6699707Y3252724D01*
X6700012Y3250285D01*
X6700012Y3201009D01*
G37*
G36*
X8701024Y3199993D02*
G01*
X9498990Y3199993D01*
X9500006Y3201009D01*
X9500006Y3499002D01*
X9498990Y3500018D01*
X8701024Y3500018D01*
X8700008Y3499002D01*
X8700008Y3478580D01*
X8699703Y3476142D01*
X8698839Y3473907D01*
X8698839Y3407918D01*
X8699703Y3405632D01*
X8700008Y3403193D01*
X8700008Y3325825D01*
X8699703Y3323386D01*
X8698839Y3321100D01*
X8698839Y3255010D01*
X8699703Y3252724D01*
X8700008Y3250285D01*
X8700008Y3201009D01*
G37*
G36*
X601167Y3265017D02*
G01*
X601167Y3315665D01*
X550621Y3315665D01*
X551688Y3313226D01*
X559054Y3301085D01*
X567893Y3289960D01*
X578104Y3280054D01*
X589534Y3271570D01*
G37*
G36*
X2601163Y3265017D02*
G01*
X2601163Y3315665D01*
X2550617Y3315665D01*
X2551684Y3313226D01*
X2559050Y3301085D01*
X2567889Y3289960D01*
X2578100Y3280054D01*
X2589530Y3271570D01*
G37*
G36*
X4601159Y3265017D02*
G01*
X4601159Y3315665D01*
X4550613Y3315665D01*
X4551680Y3313226D01*
X4559046Y3301085D01*
X4567936Y3289960D01*
X4578096Y3280054D01*
X4589526Y3271570D01*
G37*
G36*
X8601151Y3265017D02*
G01*
X8601151Y3315665D01*
X8550605Y3315665D01*
X8551672Y3313226D01*
X8559038Y3301085D01*
X8567928Y3289960D01*
X8578138Y3280054D01*
X8589518Y3271570D01*
G37*
G36*
X6601155Y3265017D02*
G01*
X6601155Y3315665D01*
X6550609Y3315665D01*
X6551676Y3313226D01*
X6559042Y3301085D01*
X6567931Y3289960D01*
X6578142Y3280054D01*
X6589522Y3271570D01*
G37*
G36*
X550672Y3413353D02*
G01*
X601167Y3413353D01*
X601167Y3463798D01*
X595579Y3461105D01*
X583692Y3453384D01*
X572871Y3444189D01*
X563321Y3433622D01*
X555193Y3421989D01*
G37*
G36*
X4550664Y3413353D02*
G01*
X4601159Y3413353D01*
X4601159Y3463798D01*
X4595571Y3461105D01*
X4583684Y3453384D01*
X4572863Y3444189D01*
X4563313Y3433622D01*
X4555185Y3421989D01*
G37*
G36*
X8550656Y3413353D02*
G01*
X8601151Y3413353D01*
X8601151Y3463798D01*
X8595563Y3461105D01*
X8583676Y3453384D01*
X8572855Y3444189D01*
X8563305Y3433622D01*
X8555177Y3421989D01*
G37*
G36*
X6550659Y3413353D02*
G01*
X6601155Y3413353D01*
X6601155Y3463798D01*
X6595567Y3461105D01*
X6583680Y3453384D01*
X6572859Y3444189D01*
X6563309Y3433622D01*
X6555181Y3421989D01*
G37*
G36*
X2550668Y3413353D02*
G01*
X2601163Y3413353D01*
X2601163Y3463798D01*
X2595575Y3461105D01*
X2583688Y3453384D01*
X2572867Y3444189D01*
X2563317Y3433622D01*
X2555189Y3421989D01*
G37*
G36*
X8383879Y3475431D02*
G01*
X8389112Y3478072D01*
X8404809Y3488080D01*
X8419439Y3499612D01*
X8432749Y3512616D01*
X8444687Y3526942D01*
X8455101Y3542385D01*
X8460028Y3551631D01*
X8383879Y3551631D01*
G37*
G36*
X3783837Y3475431D02*
G01*
X3789070Y3478072D01*
X3804818Y3488080D01*
X3819398Y3499612D01*
X3832758Y3512616D01*
X3844696Y3526942D01*
X3855059Y3542385D01*
X3859987Y3551631D01*
X3783837Y3551631D01*
G37*
G36*
X4383836Y3475431D02*
G01*
X4389120Y3478072D01*
X4404817Y3488080D01*
X4419447Y3499612D01*
X4432757Y3512616D01*
X4444695Y3526942D01*
X4455109Y3542385D01*
X4460036Y3551631D01*
X4383836Y3551631D01*
G37*
G36*
X1616151Y3475431D02*
G01*
X1616151Y3551631D01*
X1539951Y3551631D01*
X1544929Y3542385D01*
X1555292Y3526942D01*
X1567230Y3512616D01*
X1580591Y3499612D01*
X1595170Y3488080D01*
X1610868Y3478072D01*
G37*
G36*
X6383832Y3475431D02*
G01*
X6389116Y3478072D01*
X6404813Y3488080D01*
X6419443Y3499612D01*
X6432753Y3512616D01*
X6444691Y3526942D01*
X6455105Y3542385D01*
X6460032Y3551631D01*
X6383832Y3551631D01*
G37*
G36*
X7783830Y3475431D02*
G01*
X7789113Y3478072D01*
X7804810Y3488080D01*
X7819390Y3499612D01*
X7832750Y3512616D01*
X7844688Y3526942D01*
X7855051Y3542385D01*
X7860030Y3551631D01*
X7783830Y3551631D01*
G37*
G36*
X383844Y3475431D02*
G01*
X389128Y3478072D01*
X404825Y3488080D01*
X419404Y3499612D01*
X432765Y3512616D01*
X444703Y3526942D01*
X455117Y3542385D01*
X460044Y3551631D01*
X383844Y3551631D01*
G37*
G36*
X1783842Y3475431D02*
G01*
X1789074Y3478072D01*
X1804822Y3488080D01*
X1819402Y3499612D01*
X1832762Y3512616D01*
X1844700Y3526942D01*
X1855063Y3542385D01*
X1859991Y3551631D01*
X1783842Y3551631D01*
G37*
G36*
X9783826Y3475431D02*
G01*
X9789109Y3478072D01*
X9804806Y3488080D01*
X9819386Y3499612D01*
X9832746Y3512616D01*
X9844684Y3526942D01*
X9855098Y3542385D01*
X9860026Y3551631D01*
X9783826Y3551631D01*
G37*
G36*
X5783834Y3475431D02*
G01*
X5789066Y3478072D01*
X5804814Y3488080D01*
X5819394Y3499612D01*
X5832754Y3512616D01*
X5844692Y3526942D01*
X5855055Y3542385D01*
X5860034Y3551631D01*
X5783834Y3551631D01*
G37*
G36*
X2383840Y3475431D02*
G01*
X2389124Y3478072D01*
X2404821Y3488080D01*
X2419400Y3499612D01*
X2432761Y3512616D01*
X2444699Y3526942D01*
X2455113Y3542385D01*
X2460040Y3551631D01*
X2383840Y3551631D01*
G37*
G36*
X216154Y3475431D02*
G01*
X216154Y3551631D01*
X140004Y3551631D01*
X144932Y3542385D01*
X155346Y3526942D01*
X167233Y3512616D01*
X180594Y3499612D01*
X195173Y3488080D01*
X210921Y3478072D01*
G37*
G36*
X5616143Y3475431D02*
G01*
X5616143Y3551631D01*
X5539994Y3551631D01*
X5544921Y3542385D01*
X5555284Y3526942D01*
X5567222Y3512616D01*
X5580583Y3499612D01*
X5595162Y3488080D01*
X5610910Y3478072D01*
G37*
G36*
X8216138Y3475431D02*
G01*
X8216138Y3551631D01*
X8139988Y3551631D01*
X8144916Y3542385D01*
X8155330Y3526942D01*
X8167268Y3512616D01*
X8180578Y3499612D01*
X8195208Y3488080D01*
X8210905Y3478072D01*
G37*
G36*
X2216150Y3475431D02*
G01*
X2216150Y3551631D01*
X2140000Y3551631D01*
X2144928Y3542385D01*
X2155342Y3526942D01*
X2167229Y3512616D01*
X2180590Y3499612D01*
X2195169Y3488080D01*
X2210917Y3478072D01*
G37*
G36*
X7616139Y3475431D02*
G01*
X7616139Y3551631D01*
X7539990Y3551631D01*
X7544917Y3542385D01*
X7555280Y3526942D01*
X7567218Y3512616D01*
X7580579Y3499612D01*
X7595158Y3488080D01*
X7610906Y3478072D01*
G37*
G36*
X6216142Y3475431D02*
G01*
X6216142Y3551631D01*
X6139992Y3551631D01*
X6144920Y3542385D01*
X6155334Y3526942D01*
X6167272Y3512616D01*
X6180582Y3499612D01*
X6195212Y3488080D01*
X6210909Y3478072D01*
G37*
G36*
X4216146Y3475431D02*
G01*
X4216146Y3551631D01*
X4139996Y3551631D01*
X4144924Y3542385D01*
X4155338Y3526942D01*
X4167276Y3512616D01*
X4180586Y3499612D01*
X4195216Y3488080D01*
X4210913Y3478072D01*
G37*
G36*
X3616147Y3475431D02*
G01*
X3616147Y3551631D01*
X3539947Y3551631D01*
X3544925Y3542385D01*
X3555288Y3526942D01*
X3567226Y3512616D01*
X3580587Y3499612D01*
X3595166Y3488080D01*
X3610914Y3478072D01*
G37*
G36*
X9616135Y3475431D02*
G01*
X9616135Y3551631D01*
X9539986Y3551631D01*
X9544913Y3542385D01*
X9555327Y3526942D01*
X9567214Y3512616D01*
X9580575Y3499612D01*
X9595154Y3488080D01*
X9610902Y3478072D01*
G37*
G36*
X139801Y3719372D02*
G01*
X216154Y3719372D01*
X216154Y3795623D01*
X202946Y3788156D01*
X187756Y3777335D01*
X173736Y3765042D01*
X161086Y3751376D01*
X149910Y3736492D01*
G37*
G36*
X383844Y3719372D02*
G01*
X460248Y3719372D01*
X450088Y3736492D01*
X438912Y3751376D01*
X426262Y3765042D01*
X412292Y3777335D01*
X397103Y3788156D01*
X383844Y3795623D01*
G37*
G36*
X1539798Y3719372D02*
G01*
X1616151Y3719372D01*
X1616151Y3795623D01*
X1602892Y3788156D01*
X1587703Y3777335D01*
X1573733Y3765042D01*
X1561084Y3751376D01*
X1549908Y3736492D01*
X1540306Y3720541D01*
G37*
G36*
X1783842Y3719372D02*
G01*
X1860194Y3719372D01*
X1859686Y3720541D01*
X1850085Y3736492D01*
X1838909Y3751376D01*
X1826260Y3765042D01*
X1812239Y3777335D01*
X1797100Y3788156D01*
X1783842Y3795623D01*
G37*
G36*
X5783834Y3719372D02*
G01*
X5860186Y3719372D01*
X5859678Y3720541D01*
X5850077Y3736492D01*
X5838901Y3751376D01*
X5826252Y3765042D01*
X5812231Y3777335D01*
X5797092Y3788156D01*
X5783834Y3795623D01*
G37*
G36*
X4383836Y3719372D02*
G01*
X4460240Y3719372D01*
X4450080Y3736492D01*
X4438904Y3751376D01*
X4426254Y3765042D01*
X4412284Y3777335D01*
X4397095Y3788156D01*
X4383836Y3795623D01*
G37*
G36*
X7783830Y3719372D02*
G01*
X7860182Y3719372D01*
X7859674Y3720541D01*
X7850073Y3736492D01*
X7838897Y3751376D01*
X7826248Y3765042D01*
X7812278Y3777335D01*
X7797088Y3788156D01*
X7783830Y3795623D01*
G37*
G36*
X3783837Y3719372D02*
G01*
X3860190Y3719372D01*
X3859682Y3720541D01*
X3850081Y3736492D01*
X3838905Y3751376D01*
X3826256Y3765042D01*
X3812235Y3777335D01*
X3797096Y3788156D01*
X3783837Y3795623D01*
G37*
G36*
X2383840Y3719372D02*
G01*
X2460244Y3719372D01*
X2450084Y3736492D01*
X2438908Y3751376D01*
X2426258Y3765042D01*
X2412288Y3777335D01*
X2397099Y3788156D01*
X2383840Y3795623D01*
G37*
G36*
X6383832Y3719372D02*
G01*
X6460236Y3719372D01*
X6450076Y3736492D01*
X6438900Y3751376D01*
X6426250Y3765042D01*
X6412280Y3777335D01*
X6397091Y3788156D01*
X6383832Y3795623D01*
G37*
G36*
X8383879Y3719372D02*
G01*
X8460232Y3719372D01*
X8450072Y3736492D01*
X8438896Y3751376D01*
X8426246Y3765042D01*
X8412276Y3777335D01*
X8397087Y3788156D01*
X8383879Y3795623D01*
G37*
G36*
X9783826Y3719372D02*
G01*
X9860229Y3719372D01*
X9850069Y3736492D01*
X9838893Y3751376D01*
X9826244Y3765042D01*
X9812274Y3777335D01*
X9797084Y3788156D01*
X9783826Y3795623D01*
G37*
G36*
X2139797Y3719372D02*
G01*
X2216150Y3719372D01*
X2216150Y3795623D01*
X2202942Y3788156D01*
X2187752Y3777335D01*
X2173732Y3765042D01*
X2161082Y3751376D01*
X2149906Y3736492D01*
G37*
G36*
X4139793Y3719372D02*
G01*
X4216146Y3719372D01*
X4216146Y3795623D01*
X4202938Y3788156D01*
X4187748Y3777335D01*
X4173778Y3765042D01*
X4161078Y3751376D01*
X4149902Y3736492D01*
G37*
G36*
X6139789Y3719372D02*
G01*
X6216142Y3719372D01*
X6216142Y3795623D01*
X6202934Y3788156D01*
X6187744Y3777335D01*
X6173774Y3765042D01*
X6161125Y3751376D01*
X6149898Y3736492D01*
G37*
G36*
X7539786Y3719372D02*
G01*
X7616139Y3719372D01*
X7616139Y3795623D01*
X7602880Y3788156D01*
X7587742Y3777335D01*
X7573721Y3765042D01*
X7561072Y3751376D01*
X7549896Y3736492D01*
X7540294Y3720541D01*
G37*
G36*
X3539794Y3719372D02*
G01*
X3616147Y3719372D01*
X3616147Y3795623D01*
X3602888Y3788156D01*
X3587750Y3777335D01*
X3573729Y3765042D01*
X3561079Y3751376D01*
X3549904Y3736492D01*
X3540302Y3720541D01*
G37*
G36*
X9539782Y3719372D02*
G01*
X9616135Y3719372D01*
X9616135Y3795623D01*
X9602927Y3788156D01*
X9587738Y3777335D01*
X9573717Y3765042D01*
X9561068Y3751376D01*
X9549892Y3736492D01*
G37*
G36*
X5539790Y3719372D02*
G01*
X5616143Y3719372D01*
X5616143Y3795623D01*
X5602884Y3788156D01*
X5587746Y3777335D01*
X5573725Y3765042D01*
X5561076Y3751376D01*
X5549900Y3736492D01*
X5540298Y3720541D01*
G37*
G36*
X2006295Y1724152D02*
G01*
X2031542Y1725625D01*
X2056587Y1729079D01*
X2081275Y1734413D01*
X2105507Y1741678D01*
X2129078Y1750771D01*
X2151888Y1761693D01*
X2173782Y1774291D01*
X2194610Y1788617D01*
X2214270Y1804466D01*
X2232660Y1821789D01*
X2249678Y1840534D01*
X2265121Y1860499D01*
X2279040Y1881632D01*
X2291232Y1903730D01*
X2301697Y1926742D01*
X2310333Y1950516D01*
X2317140Y1974850D01*
X2321966Y1999640D01*
X2324912Y2024735D01*
X2325878Y2050034D01*
X2324912Y2075281D01*
X2321966Y2100376D01*
X2317140Y2125167D01*
X2310333Y2149500D01*
X2301697Y2173274D01*
X2291232Y2196287D01*
X2279040Y2218385D01*
X2265121Y2239518D01*
X2249678Y2259482D01*
X2232660Y2278227D01*
X2214270Y2295550D01*
X2194610Y2311400D01*
X2173782Y2325725D01*
X2151888Y2338374D01*
X2129078Y2349246D01*
X2105507Y2358339D01*
X2081275Y2365603D01*
X2056587Y2370937D01*
X2031542Y2374392D01*
X2006295Y2375865D01*
X1981047Y2375357D01*
X1955901Y2372918D01*
X1931009Y2368550D01*
X1906524Y2362200D01*
X1882597Y2354021D01*
X1859432Y2344013D01*
X1837029Y2332228D01*
X1815693Y2318766D01*
X1795373Y2303678D01*
X1776374Y2287066D01*
X1758645Y2269032D01*
X1742389Y2249678D01*
X1727707Y2229104D01*
X1714652Y2207463D01*
X1703324Y2184857D01*
X1693773Y2161489D01*
X1686052Y2137410D01*
X1680210Y2112822D01*
X1676298Y2087829D01*
X1674368Y2062632D01*
X1674368Y2037384D01*
X1676298Y2012188D01*
X1680210Y1987194D01*
X1686052Y1962607D01*
X1693773Y1938528D01*
X1703324Y1915160D01*
X1714652Y1892554D01*
X1727707Y1870913D01*
X1742389Y1850389D01*
X1758645Y1830984D01*
X1776374Y1812950D01*
X1795373Y1796338D01*
X1815693Y1781251D01*
X1837029Y1767789D01*
X1859432Y1756003D01*
X1882597Y1745996D01*
X1906524Y1737817D01*
X1931009Y1731518D01*
X1955901Y1727098D01*
X1981047Y1724660D01*
G37*

%LPD*%
D11*
G01*
X1699996Y364489D03*
G01*
X299999Y364489D03*
D12*
G01*
X649986Y635507D03*
G01*
X899998Y635507D03*
G01*
X1099997Y635507D03*
G01*
X1349984Y635507D03*
D13*
G01*
X1999995Y2050008D03*
D14*
G01*
X1999995Y2275001D03*
G01*
X1840890Y2209114D03*
G01*
X1775002Y2050008D03*
G01*
X1840890Y1890903D03*
G01*
X1999995Y1825015D03*
G01*
X2159101Y1890903D03*
G01*
X2224989Y2050008D03*
G01*
X2159101Y2209114D03*
D13*
G01*
X8000009Y2050008D03*
D14*
G01*
X8000009Y2275001D03*
G01*
X7840903Y2209114D03*
G01*
X7775016Y2050008D03*
G01*
X7840903Y1890903D03*
G01*
X8000009Y1825015D03*
G01*
X8159115Y1890903D03*
G01*
X8225002Y2050008D03*
G01*
X8159115Y2209114D03*
D11*
G01*
X3699992Y364489D03*
G01*
X2299995Y364489D03*
D12*
G01*
X2649981Y635507D03*
G01*
X2899994Y635507D03*
G01*
X3099993Y635507D03*
G01*
X3349980Y635507D03*
D11*
G01*
X5699988Y364489D03*
G01*
X4299991Y364489D03*
D12*
G01*
X4649977Y635507D03*
G01*
X4899990Y635507D03*
G01*
X5099989Y635507D03*
G01*
X5349976Y635507D03*
D11*
G01*
X7699984Y364489D03*
G01*
X6299987Y364489D03*
D12*
G01*
X6649974Y635507D03*
G01*
X6899986Y635507D03*
G01*
X7099985Y635507D03*
G01*
X7349972Y635507D03*
D11*
G01*
X9700006Y364489D03*
G01*
X8300008Y364489D03*
D12*
G01*
X8649995Y635507D03*
G01*
X8900007Y635507D03*
G01*
X9100007Y635507D03*
G01*
X9349993Y635507D03*
D11*
G01*
X299999Y3635502D03*
G01*
X1699996Y3635502D03*
D12*
G01*
X1350010Y3364484D03*
G01*
X1099997Y3364484D03*
G01*
X899998Y3364484D03*
G01*
X650011Y3364484D03*
D11*
G01*
X2299995Y3635502D03*
G01*
X3699992Y3635502D03*
D12*
G01*
X3350006Y3364484D03*
G01*
X3099993Y3364484D03*
G01*
X2899994Y3364484D03*
G01*
X2650007Y3364484D03*
D11*
G01*
X4300016Y3635502D03*
G01*
X5700013Y3635502D03*
D12*
G01*
X5350027Y3364484D03*
G01*
X5100015Y3364484D03*
G01*
X4900015Y3364484D03*
G01*
X4650028Y3364484D03*
D11*
G01*
X6300012Y3635502D03*
G01*
X7700009Y3635502D03*
D12*
G01*
X7350023Y3364484D03*
G01*
X7100011Y3364484D03*
G01*
X6900011Y3364484D03*
G01*
X6650024Y3364484D03*
D11*
G01*
X8300008Y3635502D03*
G01*
X9700006Y3635502D03*
D12*
G01*
X9350019Y3364484D03*
G01*
X9100007Y3364484D03*
G01*
X8900007Y3364484D03*
G01*
X8650020Y3364484D03*
M02*
