M48
METRIC,LZ,000.000
;FILE_FORMAT=3:3
;TYPE=PLATED
;Layer: PTH_Through
;EasyEDA v6.5.9, 2022-09-16 17:49:15
;a67cddfb3fce44daa9051d46cbbcc19f,10
;Gerber Generator version 0.2
;Holesize 1 = 0.508 mm
T01C0.508
;Holesize 2 = 0.800 mm
T02C0.800
;Holesize 3 = 1.200 mm
T03C1.200
;Holesize 4 = 1.600 mm
T04C1.600
;Holesize 5 = 3.000 mm
T05C3.000
%
G05
G90
T01
X020000Y022750
X018409Y022091
X017750Y020500
X018409Y018909
X020000Y018250
X021591Y018909
X022250Y020500
X021591Y022091
X080000Y022750
X078409Y022091
X077750Y020500
X078409Y018909
X080000Y018250
X081591Y018909
X082250Y020500
X081591Y022091
T02
X012098Y008800
X010699Y008800
X009302Y008800
X007902Y008800
X032098Y008800
X030698Y008800
X029301Y008800
X027902Y008800
X052098Y008800
X050699Y008800
X049302Y008800
X047902Y008800
X072098Y008800
X070698Y008800
X069301Y008800
X067902Y008800
X092098Y008800
X090698Y008800
X089301Y008800
X087902Y008800
X007902Y031200
X009302Y031200
X010699Y031200
X012098Y031200
X027902Y031200
X029301Y031200
X030698Y031200
X032098Y031200
X087902Y031200
X089301Y031200
X090698Y031200
X092098Y031200
X067902Y031200
X069301Y031200
X070698Y031200
X072098Y031200
X047902Y031200
X049302Y031200
X050699Y031200
X052098Y031200
T03
X010590Y001200G85X009390Y001200
X030590Y001200G85X029390Y001200
X050590Y001200G85X049390Y001200
X070590Y001200G85X069390Y001200
X090590Y001200G85X089390Y001200
X009410Y038800G85X010610Y038800
X029410Y038800G85X030610Y038800
X089410Y038800G85X090610Y038800
X069410Y038800G85X070610Y038800
X049410Y038800G85X050610Y038800
T04
X006919Y006551G85X006919Y007051
X013081Y006451G85X013081Y007151
X026919Y006551G85X026919Y007051
X033081Y006451G85X033081Y007151
X046919Y006551G85X046919Y007051
X053081Y006451G85X053081Y007151
X066919Y006551G85X066919Y007051
X073081Y006451G85X073081Y007151
X086919Y006551G85X086919Y007051
X093081Y006451G85X093081Y007151
X013081Y033449G85X013081Y032949
X006919Y033549G85X006919Y032849
X033081Y033449G85X033081Y032949
X026919Y033549G85X026919Y032849
X093081Y033449G85X093081Y032949
X086919Y033549G85X086919Y032849
X073081Y033449G85X073081Y032949
X066919Y033549G85X066919Y032849
X053081Y033449G85X053081Y032949
X046919Y033549G85X046919Y032849
T05
X020000Y020500
X080000Y020500
M30
