G04 Layer: TopLayer*
G04 EasyEDA v6.5.9, 2022-09-16 17:49:15*
G04 a67cddfb3fce44daa9051d46cbbcc19f,10*
G04 Gerber Generator version 0.2*
G04 Scale: 100 percent, Rotated: No, Reflected: No *
G04 Dimensions in millimeters *
G04 leading zeros omitted , absolute positions ,4 integer and 5 decimal *
%FSLAX45Y45*%
%MOMM*%

%ADD10C,1.1999*%
%ADD11C,6.0000*%
%ADD12C,1.2700*%
%ADD13C,2.1000*%
%ADD14C,1.8000*%
%ADD15C,0.0111*%

%LPD*%
G36*
X300685Y25908D02*
G01*
X278079Y26822D01*
X256743Y29362D01*
X235610Y33629D01*
X214934Y39471D01*
X194767Y46939D01*
X175209Y55981D01*
X156464Y66548D01*
X138582Y78536D01*
X121716Y91846D01*
X105918Y106476D01*
X91338Y122326D01*
X78028Y139242D01*
X66141Y157124D01*
X55626Y175920D01*
X46634Y195478D01*
X39217Y215696D01*
X33426Y236423D01*
X29260Y257505D01*
X26771Y278892D01*
X25908Y300685D01*
X25908Y3699306D01*
X26822Y3721912D01*
X29362Y3743248D01*
X33629Y3764381D01*
X39471Y3785057D01*
X46939Y3805224D01*
X55981Y3824782D01*
X66548Y3843528D01*
X78536Y3861409D01*
X91846Y3878275D01*
X106476Y3894074D01*
X122326Y3908653D01*
X139242Y3921963D01*
X157124Y3933901D01*
X175920Y3944365D01*
X195478Y3953357D01*
X215696Y3960774D01*
X236423Y3966565D01*
X257505Y3970731D01*
X278892Y3973220D01*
X300685Y3974084D01*
X847242Y3974084D01*
X851052Y3973322D01*
X854354Y3971188D01*
X856538Y3967987D01*
X857402Y3964127D01*
X856691Y3960266D01*
X854608Y3956964D01*
X851712Y3953865D01*
X843178Y3942130D01*
X837285Y3931361D01*
X919683Y3931361D01*
X919683Y3963924D01*
X920445Y3967835D01*
X922629Y3971137D01*
X925931Y3973322D01*
X929843Y3974084D01*
X1072184Y3974084D01*
X1076096Y3973322D01*
X1079398Y3971137D01*
X1081582Y3967835D01*
X1082344Y3963924D01*
X1082344Y3931361D01*
X1164793Y3931361D01*
X1158849Y3942130D01*
X1150315Y3953865D01*
X1147419Y3956964D01*
X1145336Y3960266D01*
X1144625Y3964127D01*
X1145489Y3967987D01*
X1147724Y3971188D01*
X1150975Y3973322D01*
X1154785Y3974084D01*
X2847238Y3974084D01*
X2851048Y3973322D01*
X2854350Y3971188D01*
X2856534Y3967987D01*
X2857398Y3964127D01*
X2856687Y3960266D01*
X2854655Y3956964D01*
X2851708Y3953865D01*
X2843174Y3942130D01*
X2837281Y3931361D01*
X2919679Y3931361D01*
X2919679Y3963924D01*
X2920441Y3967835D01*
X2922625Y3971137D01*
X2925927Y3973322D01*
X2929839Y3974084D01*
X3072180Y3974084D01*
X3076092Y3973322D01*
X3079394Y3971137D01*
X3081578Y3967835D01*
X3082340Y3963924D01*
X3082340Y3931361D01*
X3164789Y3931361D01*
X3158845Y3942130D01*
X3150311Y3953865D01*
X3147415Y3956964D01*
X3145332Y3960266D01*
X3144672Y3964127D01*
X3145485Y3967987D01*
X3147720Y3971188D01*
X3150971Y3973322D01*
X3154781Y3974084D01*
X4847234Y3974084D01*
X4851044Y3973322D01*
X4854346Y3971188D01*
X4856530Y3967987D01*
X4857394Y3964127D01*
X4856734Y3960266D01*
X4854651Y3956964D01*
X4851704Y3953865D01*
X4843170Y3942130D01*
X4837277Y3931361D01*
X4919675Y3931361D01*
X4919675Y3963924D01*
X4920437Y3967835D01*
X4922621Y3971137D01*
X4925923Y3973322D01*
X4929835Y3974084D01*
X5072227Y3974084D01*
X5076088Y3973322D01*
X5079390Y3971137D01*
X5081574Y3967835D01*
X5082387Y3963924D01*
X5082387Y3931361D01*
X5164785Y3931361D01*
X5158841Y3942130D01*
X5150307Y3953865D01*
X5147411Y3956964D01*
X5145328Y3960266D01*
X5144668Y3964127D01*
X5145481Y3967987D01*
X5147716Y3971188D01*
X5150967Y3973322D01*
X5154828Y3974084D01*
X6847230Y3974084D01*
X6851040Y3973322D01*
X6854342Y3971188D01*
X6856526Y3967987D01*
X6857390Y3964127D01*
X6856730Y3960266D01*
X6854647Y3956964D01*
X6851700Y3953865D01*
X6843166Y3942130D01*
X6837273Y3931361D01*
X6919671Y3931361D01*
X6919671Y3963924D01*
X6920433Y3967835D01*
X6922617Y3971137D01*
X6925919Y3973322D01*
X6929831Y3974084D01*
X7072223Y3974084D01*
X7076084Y3973322D01*
X7079386Y3971137D01*
X7081570Y3967835D01*
X7082383Y3963924D01*
X7082383Y3931361D01*
X7164781Y3931361D01*
X7158837Y3942130D01*
X7150303Y3953865D01*
X7147407Y3956964D01*
X7145324Y3960266D01*
X7144664Y3964127D01*
X7145477Y3967987D01*
X7147712Y3971188D01*
X7150963Y3973322D01*
X7154824Y3974084D01*
X8847226Y3974084D01*
X8851087Y3973322D01*
X8854338Y3971188D01*
X8856573Y3967987D01*
X8857386Y3964127D01*
X8856726Y3960266D01*
X8854643Y3956964D01*
X8851747Y3953865D01*
X8843162Y3942130D01*
X8837269Y3931361D01*
X8919667Y3931361D01*
X8919667Y3963924D01*
X8920429Y3967835D01*
X8922664Y3971137D01*
X8925915Y3973322D01*
X8929827Y3974084D01*
X9072219Y3974084D01*
X9076080Y3973322D01*
X9079382Y3971137D01*
X9081617Y3967835D01*
X9082379Y3963924D01*
X9082379Y3931361D01*
X9164777Y3931361D01*
X9158884Y3942130D01*
X9150299Y3953865D01*
X9147403Y3956964D01*
X9145320Y3960266D01*
X9144660Y3964127D01*
X9145473Y3967987D01*
X9147708Y3971188D01*
X9150959Y3973322D01*
X9154820Y3974084D01*
X9699294Y3974084D01*
X9721900Y3973169D01*
X9743287Y3970629D01*
X9764369Y3966413D01*
X9785045Y3960520D01*
X9805263Y3953052D01*
X9824770Y3944010D01*
X9843516Y3933444D01*
X9861397Y3921506D01*
X9878314Y3908145D01*
X9894062Y3893515D01*
X9908641Y3877665D01*
X9921951Y3860749D01*
X9933889Y3842867D01*
X9944354Y3824071D01*
X9953345Y3804513D01*
X9960762Y3784295D01*
X9966553Y3763568D01*
X9970770Y3742486D01*
X9973259Y3721100D01*
X9974072Y3699306D01*
X9974072Y300685D01*
X9973157Y278079D01*
X9970617Y256743D01*
X9966401Y235610D01*
X9960508Y214934D01*
X9953040Y194767D01*
X9943998Y175209D01*
X9933482Y156464D01*
X9921494Y138582D01*
X9908133Y121716D01*
X9893503Y105918D01*
X9877704Y91338D01*
X9860788Y78028D01*
X9842855Y66141D01*
X9824059Y55626D01*
X9804501Y46634D01*
X9784334Y39217D01*
X9763607Y33426D01*
X9742474Y29260D01*
X9721088Y26771D01*
X9699294Y25908D01*
X9152788Y25908D01*
X9148927Y26670D01*
X9145676Y28803D01*
X9143441Y32054D01*
X9142628Y35864D01*
X9143288Y39725D01*
X9145371Y43027D01*
X9148267Y46126D01*
X9156852Y57912D01*
X9162745Y68630D01*
X9080347Y68630D01*
X9080347Y36068D01*
X9079585Y32156D01*
X9077350Y28905D01*
X9074048Y26670D01*
X9070187Y25908D01*
X8927795Y25908D01*
X8923883Y26670D01*
X8920632Y28905D01*
X8918397Y32156D01*
X8917635Y36068D01*
X8917635Y68630D01*
X8835237Y68630D01*
X8841130Y57912D01*
X8849715Y46126D01*
X8852611Y43027D01*
X8854694Y39725D01*
X8855354Y35864D01*
X8854541Y32054D01*
X8852306Y28803D01*
X8849055Y26670D01*
X8845194Y25908D01*
X7152792Y25908D01*
X7148931Y26670D01*
X7145680Y28803D01*
X7143445Y32054D01*
X7142632Y35864D01*
X7143292Y39725D01*
X7145375Y43027D01*
X7148271Y46126D01*
X7156805Y57912D01*
X7162749Y68630D01*
X7080351Y68630D01*
X7080351Y36068D01*
X7079538Y32156D01*
X7077354Y28905D01*
X7074052Y26670D01*
X7070191Y25908D01*
X6927799Y25908D01*
X6923887Y26670D01*
X6920585Y28905D01*
X6918401Y32156D01*
X6917639Y36068D01*
X6917639Y68630D01*
X6835241Y68630D01*
X6841134Y57912D01*
X6849668Y46126D01*
X6852615Y43027D01*
X6854698Y39725D01*
X6855358Y35864D01*
X6854494Y32054D01*
X6852310Y28803D01*
X6849008Y26670D01*
X6845198Y25908D01*
X5152796Y25908D01*
X5148935Y26670D01*
X5145684Y28803D01*
X5143449Y32054D01*
X5142636Y35864D01*
X5143296Y39725D01*
X5145379Y43027D01*
X5148275Y46126D01*
X5156809Y57912D01*
X5162753Y68630D01*
X5080355Y68630D01*
X5080355Y36068D01*
X5079542Y32156D01*
X5077358Y28905D01*
X5074056Y26670D01*
X5070195Y25908D01*
X4927803Y25908D01*
X4923891Y26670D01*
X4920589Y28905D01*
X4918405Y32156D01*
X4917643Y36068D01*
X4917643Y68630D01*
X4835245Y68630D01*
X4841138Y57912D01*
X4849672Y46126D01*
X4852619Y43027D01*
X4854702Y39725D01*
X4855362Y35864D01*
X4854498Y32054D01*
X4852314Y28803D01*
X4849012Y26670D01*
X4845202Y25908D01*
X3152749Y25908D01*
X3148939Y26670D01*
X3145688Y28803D01*
X3143453Y32054D01*
X3142640Y35864D01*
X3143300Y39725D01*
X3145383Y43027D01*
X3148279Y46126D01*
X3156813Y57912D01*
X3162757Y68630D01*
X3080308Y68630D01*
X3080308Y36068D01*
X3079546Y32156D01*
X3077362Y28905D01*
X3074060Y26670D01*
X3070148Y25908D01*
X2927807Y25908D01*
X2923895Y26670D01*
X2920593Y28905D01*
X2918409Y32156D01*
X2917647Y36068D01*
X2917647Y68630D01*
X2835249Y68630D01*
X2841142Y57912D01*
X2849676Y46126D01*
X2852623Y43027D01*
X2854655Y39725D01*
X2855366Y35864D01*
X2854502Y32054D01*
X2852318Y28803D01*
X2849016Y26670D01*
X2845206Y25908D01*
X1152753Y25908D01*
X1148943Y26670D01*
X1145692Y28803D01*
X1143457Y32054D01*
X1142593Y35864D01*
X1143304Y39725D01*
X1145387Y43027D01*
X1148283Y46126D01*
X1156817Y57912D01*
X1162761Y68630D01*
X1080312Y68630D01*
X1080312Y36068D01*
X1079550Y32156D01*
X1077366Y28905D01*
X1074064Y26670D01*
X1070152Y25908D01*
X927811Y25908D01*
X923899Y26670D01*
X920597Y28905D01*
X918413Y32156D01*
X917651Y36068D01*
X917651Y68630D01*
X835253Y68630D01*
X841146Y57912D01*
X849680Y46126D01*
X852576Y43027D01*
X854659Y39725D01*
X855370Y35864D01*
X854506Y32054D01*
X852322Y28803D01*
X849020Y26670D01*
X845210Y25908D01*
G37*

%LPC*%
G36*
X2006295Y1724152D02*
G01*
X2031542Y1725625D01*
X2056587Y1729079D01*
X2081275Y1734413D01*
X2105507Y1741678D01*
X2129078Y1750771D01*
X2151888Y1761693D01*
X2173782Y1774291D01*
X2194610Y1788617D01*
X2214270Y1804466D01*
X2232660Y1821789D01*
X2249678Y1840534D01*
X2265121Y1860499D01*
X2279040Y1881632D01*
X2291232Y1903730D01*
X2301697Y1926742D01*
X2310333Y1950516D01*
X2317140Y1974850D01*
X2321966Y1999640D01*
X2324912Y2024735D01*
X2325878Y2050034D01*
X2324912Y2075281D01*
X2321966Y2100376D01*
X2317140Y2125167D01*
X2310333Y2149500D01*
X2301697Y2173274D01*
X2291232Y2196287D01*
X2279040Y2218385D01*
X2265121Y2239518D01*
X2249678Y2259482D01*
X2232660Y2278227D01*
X2214270Y2295550D01*
X2194610Y2311400D01*
X2173782Y2325725D01*
X2151888Y2338374D01*
X2129078Y2349246D01*
X2105507Y2358339D01*
X2081275Y2365603D01*
X2056587Y2370937D01*
X2031542Y2374392D01*
X2006295Y2375865D01*
X1981047Y2375357D01*
X1955901Y2372918D01*
X1931009Y2368550D01*
X1906524Y2362200D01*
X1882597Y2354021D01*
X1859432Y2344013D01*
X1837029Y2332228D01*
X1815693Y2318766D01*
X1795373Y2303678D01*
X1776374Y2287066D01*
X1758645Y2269032D01*
X1742389Y2249678D01*
X1727707Y2229104D01*
X1714652Y2207463D01*
X1703324Y2184857D01*
X1693773Y2161489D01*
X1686052Y2137410D01*
X1680210Y2112822D01*
X1676298Y2087829D01*
X1674368Y2062632D01*
X1674368Y2037384D01*
X1676298Y2012188D01*
X1680210Y1987194D01*
X1686052Y1962607D01*
X1693773Y1938528D01*
X1703324Y1915160D01*
X1714652Y1892554D01*
X1727707Y1870913D01*
X1742389Y1850389D01*
X1758645Y1830984D01*
X1776374Y1812950D01*
X1795373Y1796338D01*
X1815693Y1781251D01*
X1837029Y1767789D01*
X1859432Y1756003D01*
X1882597Y1745996D01*
X1906524Y1737817D01*
X1931009Y1731518D01*
X1955901Y1727098D01*
X1981047Y1724660D01*
G37*
G36*
X3082340Y3766362D02*
G01*
X3089859Y3767785D01*
X3103676Y3772255D01*
X3116834Y3778453D01*
X3129127Y3786276D01*
X3140354Y3795522D01*
X3150311Y3806139D01*
X3158845Y3817924D01*
X3164789Y3828643D01*
X3082340Y3828643D01*
G37*
G36*
X6919671Y3766362D02*
G01*
X6919671Y3828643D01*
X6837273Y3828643D01*
X6843166Y3817924D01*
X6851700Y3806139D01*
X6861708Y3795522D01*
X6872884Y3786276D01*
X6885178Y3778453D01*
X6898335Y3772255D01*
X6912203Y3767785D01*
G37*
G36*
X7082383Y3766362D02*
G01*
X7089851Y3767785D01*
X7103668Y3772255D01*
X7116825Y3778453D01*
X7129119Y3786276D01*
X7140346Y3795522D01*
X7150303Y3806139D01*
X7158837Y3817924D01*
X7164781Y3828643D01*
X7082383Y3828643D01*
G37*
G36*
X8919667Y3766362D02*
G01*
X8919667Y3828643D01*
X8837269Y3828643D01*
X8843162Y3817924D01*
X8851747Y3806139D01*
X8861704Y3795522D01*
X8872880Y3786276D01*
X8885174Y3778453D01*
X8898331Y3772255D01*
X8912199Y3767785D01*
G37*
G36*
X919683Y3766362D02*
G01*
X919683Y3828643D01*
X837285Y3828643D01*
X843178Y3817924D01*
X851712Y3806139D01*
X861669Y3795522D01*
X872896Y3786276D01*
X885190Y3778453D01*
X898347Y3772255D01*
X912215Y3767785D01*
G37*
G36*
X2919679Y3766362D02*
G01*
X2919679Y3828643D01*
X2837281Y3828643D01*
X2843174Y3817924D01*
X2851708Y3806139D01*
X2861665Y3795522D01*
X2872892Y3786276D01*
X2885186Y3778453D01*
X2898343Y3772255D01*
X2912211Y3767785D01*
G37*
G36*
X1082344Y3766362D02*
G01*
X1089812Y3767785D01*
X1103680Y3772255D01*
X1116838Y3778453D01*
X1129131Y3786276D01*
X1140358Y3795522D01*
X1150315Y3806139D01*
X1158849Y3817924D01*
X1164793Y3828643D01*
X1082344Y3828643D01*
G37*
G36*
X5082387Y3766362D02*
G01*
X5089855Y3767785D01*
X5103672Y3772255D01*
X5116830Y3778453D01*
X5129123Y3786276D01*
X5140350Y3795522D01*
X5150307Y3806139D01*
X5158841Y3817924D01*
X5164785Y3828643D01*
X5082387Y3828643D01*
G37*
G36*
X9082379Y3766362D02*
G01*
X9089847Y3767785D01*
X9103664Y3772255D01*
X9116822Y3778453D01*
X9129115Y3786276D01*
X9140342Y3795522D01*
X9150299Y3806139D01*
X9158884Y3817924D01*
X9164777Y3828643D01*
X9082379Y3828643D01*
G37*
G36*
X6835241Y171348D02*
G01*
X6917639Y171348D01*
X6917639Y233679D01*
X6910171Y232257D01*
X6896303Y227736D01*
X6883146Y221538D01*
X6870852Y213766D01*
X6859676Y204470D01*
X6849668Y193852D01*
X6841134Y182067D01*
G37*
G36*
X8835237Y171348D02*
G01*
X8917635Y171348D01*
X8917635Y233679D01*
X8910167Y232257D01*
X8896299Y227736D01*
X8883142Y221538D01*
X8870848Y213766D01*
X8859672Y204470D01*
X8849715Y193852D01*
X8841130Y182067D01*
G37*
G36*
X1080312Y171348D02*
G01*
X1162761Y171348D01*
X1156817Y182067D01*
X1148283Y193852D01*
X1138326Y204470D01*
X1127099Y213766D01*
X1114806Y221538D01*
X1101648Y227736D01*
X1087780Y232257D01*
X1080312Y233679D01*
G37*
G36*
X5080355Y171348D02*
G01*
X5162753Y171348D01*
X5156809Y182067D01*
X5148275Y193852D01*
X5138318Y204470D01*
X5127091Y213766D01*
X5114798Y221538D01*
X5101640Y227736D01*
X5087823Y232257D01*
X5080355Y233679D01*
G37*
G36*
X7080351Y171348D02*
G01*
X7162749Y171348D01*
X7156805Y182067D01*
X7148271Y193852D01*
X7138314Y204470D01*
X7127087Y213766D01*
X7114794Y221538D01*
X7101636Y227736D01*
X7087819Y232257D01*
X7080351Y233679D01*
G37*
G36*
X3080308Y171348D02*
G01*
X3162757Y171348D01*
X3156813Y182067D01*
X3148279Y193852D01*
X3138322Y204470D01*
X3127095Y213766D01*
X3114802Y221538D01*
X3101644Y227736D01*
X3087827Y232257D01*
X3080308Y233679D01*
G37*
G36*
X4835245Y171348D02*
G01*
X4917643Y171348D01*
X4917643Y233679D01*
X4910175Y232257D01*
X4896307Y227736D01*
X4883150Y221538D01*
X4870856Y213766D01*
X4859629Y204470D01*
X4849672Y193852D01*
X4841138Y182067D01*
G37*
G36*
X835253Y171348D02*
G01*
X917651Y171348D01*
X917651Y233679D01*
X910183Y232257D01*
X896315Y227736D01*
X883158Y221538D01*
X870864Y213766D01*
X859637Y204470D01*
X849680Y193852D01*
X841146Y182067D01*
G37*
G36*
X2835249Y171348D02*
G01*
X2917647Y171348D01*
X2917647Y233679D01*
X2910179Y232257D01*
X2896311Y227736D01*
X2883154Y221538D01*
X2870860Y213766D01*
X2859633Y204470D01*
X2849676Y193852D01*
X2841142Y182067D01*
G37*
G36*
X9080347Y171348D02*
G01*
X9162745Y171348D01*
X9156852Y182067D01*
X9148267Y193852D01*
X9138310Y204470D01*
X9127083Y213766D01*
X9114790Y221538D01*
X9101632Y227736D01*
X9087815Y232257D01*
X9080347Y233679D01*
G37*
G36*
X2633065Y533400D02*
G01*
X2633065Y606247D01*
X2568600Y606247D01*
X2574950Y591362D01*
X2582519Y578154D01*
X2591612Y565962D01*
X2602077Y554888D01*
X2613710Y545084D01*
X2626461Y536752D01*
G37*
G36*
X4750765Y533400D02*
G01*
X4757318Y536752D01*
X4770069Y545084D01*
X4781702Y554888D01*
X4792167Y565962D01*
X4801260Y578154D01*
X4808880Y591362D01*
X4815179Y606247D01*
X4750765Y606247D01*
G37*
G36*
X2750769Y533400D02*
G01*
X2757322Y536752D01*
X2770073Y545084D01*
X2781706Y554888D01*
X2792171Y565962D01*
X2801264Y578154D01*
X2808884Y591362D01*
X2815183Y606247D01*
X2750769Y606247D01*
G37*
G36*
X4633061Y533400D02*
G01*
X4633061Y606247D01*
X4568647Y606247D01*
X4574946Y591362D01*
X4582515Y578154D01*
X4591608Y565962D01*
X4602073Y554888D01*
X4613757Y545084D01*
X4626457Y536752D01*
G37*
G36*
X1249273Y533400D02*
G01*
X1249273Y606247D01*
X1184808Y606247D01*
X1191158Y591362D01*
X1198727Y578154D01*
X1207820Y565962D01*
X1218285Y554888D01*
X1229918Y545084D01*
X1242669Y536752D01*
G37*
G36*
X8750757Y533400D02*
G01*
X8757361Y536752D01*
X8770061Y545084D01*
X8781745Y554888D01*
X8792159Y565962D01*
X8801252Y578154D01*
X8808872Y591362D01*
X8815171Y606247D01*
X8750757Y606247D01*
G37*
G36*
X750773Y533400D02*
G01*
X757326Y536752D01*
X770077Y545084D01*
X781710Y554888D01*
X792175Y565962D01*
X801268Y578154D01*
X808888Y591362D01*
X815187Y606247D01*
X750773Y606247D01*
G37*
G36*
X633069Y533400D02*
G01*
X633069Y606247D01*
X568604Y606247D01*
X574954Y591362D01*
X582523Y578154D01*
X591616Y565962D01*
X602081Y554888D01*
X613714Y545084D01*
X626465Y536752D01*
G37*
G36*
X1366977Y533400D02*
G01*
X1373530Y536752D01*
X1386281Y545084D01*
X1397914Y554888D01*
X1408379Y565962D01*
X1417472Y578154D01*
X1425092Y591362D01*
X1431391Y606247D01*
X1366977Y606247D01*
G37*
G36*
X6750761Y533400D02*
G01*
X6757365Y536752D01*
X6770065Y545084D01*
X6781698Y554888D01*
X6792163Y565962D01*
X6801256Y578154D01*
X6808876Y591362D01*
X6815175Y606247D01*
X6750761Y606247D01*
G37*
G36*
X8633053Y533400D02*
G01*
X8633053Y606247D01*
X8568639Y606247D01*
X8574938Y591362D01*
X8582558Y578154D01*
X8591651Y565962D01*
X8602065Y554888D01*
X8613749Y545084D01*
X8626449Y536752D01*
G37*
G36*
X6633057Y533400D02*
G01*
X6633057Y606247D01*
X6568643Y606247D01*
X6574942Y591362D01*
X6582562Y578154D01*
X6591604Y565962D01*
X6602069Y554888D01*
X6613753Y545084D01*
X6626453Y536752D01*
G37*
G36*
X7366965Y533400D02*
G01*
X7373569Y536752D01*
X7386269Y545084D01*
X7397902Y554888D01*
X7408367Y565962D01*
X7417460Y578154D01*
X7425080Y591362D01*
X7431379Y606247D01*
X7366965Y606247D01*
G37*
G36*
X7249261Y533400D02*
G01*
X7249261Y606247D01*
X7184847Y606247D01*
X7191146Y591362D01*
X7198766Y578154D01*
X7207808Y565962D01*
X7218273Y554888D01*
X7229957Y545084D01*
X7242657Y536752D01*
G37*
G36*
X3366973Y533400D02*
G01*
X3373526Y536752D01*
X3386277Y545084D01*
X3397910Y554888D01*
X3408375Y565962D01*
X3417468Y578154D01*
X3425088Y591362D01*
X3431387Y606247D01*
X3366973Y606247D01*
G37*
G36*
X5366969Y533400D02*
G01*
X5373522Y536752D01*
X5386273Y545084D01*
X5397906Y554888D01*
X5408371Y565962D01*
X5417464Y578154D01*
X5425084Y591362D01*
X5431383Y606247D01*
X5366969Y606247D01*
G37*
G36*
X3249269Y533400D02*
G01*
X3249269Y606247D01*
X3184804Y606247D01*
X3191154Y591362D01*
X3198723Y578154D01*
X3207816Y565962D01*
X3218281Y554888D01*
X3229914Y545084D01*
X3242665Y536752D01*
G37*
G36*
X5249265Y533400D02*
G01*
X5249265Y606247D01*
X5184851Y606247D01*
X5191150Y591362D01*
X5198719Y578154D01*
X5207812Y565962D01*
X5218277Y554888D01*
X5229961Y545084D01*
X5242661Y536752D01*
G37*
G36*
X9249257Y533400D02*
G01*
X9249257Y606247D01*
X9184843Y606247D01*
X9191142Y591362D01*
X9198762Y578154D01*
X9207855Y565962D01*
X9218269Y554888D01*
X9229953Y545084D01*
X9242653Y536752D01*
G37*
G36*
X9366961Y533400D02*
G01*
X9373565Y536752D01*
X9386265Y545084D01*
X9397949Y554888D01*
X9408363Y565962D01*
X9417456Y578154D01*
X9425076Y591362D01*
X9431375Y606247D01*
X9366961Y606247D01*
G37*
G36*
X6568643Y753922D02*
G01*
X6633057Y753922D01*
X6633057Y826769D01*
X6626453Y823417D01*
X6613753Y815086D01*
X6602069Y805281D01*
X6591604Y794207D01*
X6582562Y782015D01*
X6574942Y768807D01*
G37*
G36*
X1366977Y753922D02*
G01*
X1431391Y753922D01*
X1425092Y768807D01*
X1417472Y782015D01*
X1408379Y794207D01*
X1397914Y805281D01*
X1386281Y815086D01*
X1373530Y823417D01*
X1366977Y826769D01*
G37*
G36*
X568604Y753922D02*
G01*
X633069Y753922D01*
X633069Y826769D01*
X626465Y823417D01*
X613714Y815086D01*
X602081Y805281D01*
X591616Y794207D01*
X582523Y782015D01*
X574954Y768807D01*
G37*
G36*
X4568647Y753922D02*
G01*
X4633061Y753922D01*
X4633061Y826769D01*
X4626457Y823417D01*
X4613757Y815086D01*
X4602073Y805281D01*
X4591608Y794207D01*
X4582515Y782015D01*
X4574946Y768807D01*
G37*
G36*
X8568639Y753922D02*
G01*
X8633053Y753922D01*
X8633053Y826769D01*
X8626449Y823417D01*
X8613749Y815086D01*
X8602065Y805281D01*
X8591651Y794207D01*
X8582558Y782015D01*
X8574938Y768807D01*
G37*
G36*
X2568600Y753922D02*
G01*
X2633065Y753922D01*
X2633065Y826769D01*
X2626461Y823417D01*
X2613710Y815086D01*
X2602077Y805281D01*
X2591612Y794207D01*
X2582519Y782015D01*
X2574950Y768807D01*
G37*
G36*
X7366965Y753922D02*
G01*
X7431379Y753922D01*
X7425080Y768807D01*
X7417460Y782015D01*
X7408367Y794207D01*
X7397902Y805281D01*
X7386269Y815086D01*
X7373569Y823417D01*
X7366965Y826769D01*
G37*
G36*
X5366969Y753922D02*
G01*
X5431383Y753922D01*
X5425084Y768807D01*
X5417464Y782015D01*
X5408371Y794207D01*
X5397906Y805281D01*
X5386273Y815086D01*
X5373522Y823417D01*
X5366969Y826769D01*
G37*
G36*
X3366973Y753922D02*
G01*
X3431387Y753922D01*
X3425088Y768807D01*
X3417468Y782015D01*
X3408375Y794207D01*
X3397910Y805281D01*
X3386277Y815086D01*
X3373526Y823417D01*
X3366973Y826769D01*
G37*
G36*
X9366961Y753922D02*
G01*
X9431375Y753922D01*
X9425076Y768807D01*
X9417456Y782015D01*
X9408363Y794207D01*
X9397949Y805281D01*
X9386265Y815086D01*
X9373565Y823417D01*
X9366961Y826769D01*
G37*
G36*
X1184808Y753922D02*
G01*
X1249273Y753922D01*
X1249273Y842213D01*
X1249527Y843635D01*
X1246174Y843635D01*
X1246174Y787603D01*
X1245565Y784250D01*
X1243888Y781253D01*
X1241348Y778967D01*
X1238148Y777697D01*
X1224178Y774750D01*
X1209090Y773785D01*
X1194612Y774852D01*
X1191158Y768807D01*
G37*
G36*
X7184847Y753922D02*
G01*
X7249261Y753922D01*
X7249261Y842213D01*
X7249515Y843635D01*
X7246162Y843635D01*
X7246162Y787603D01*
X7245553Y784250D01*
X7243876Y781253D01*
X7241336Y778967D01*
X7238136Y777697D01*
X7224217Y774750D01*
X7209078Y773785D01*
X7194600Y774852D01*
X7191146Y768807D01*
G37*
G36*
X3184804Y753922D02*
G01*
X3249269Y753922D01*
X3249269Y842213D01*
X3249523Y843635D01*
X3246170Y843635D01*
X3246170Y787603D01*
X3245561Y784250D01*
X3243884Y781253D01*
X3241344Y778967D01*
X3238144Y777697D01*
X3224174Y774750D01*
X3209086Y773785D01*
X3194608Y774852D01*
X3191154Y768807D01*
G37*
G36*
X5184851Y753922D02*
G01*
X5249265Y753922D01*
X5249265Y842213D01*
X5249519Y843635D01*
X5246166Y843635D01*
X5246166Y787603D01*
X5245557Y784250D01*
X5243880Y781253D01*
X5241340Y778967D01*
X5238140Y777697D01*
X5224221Y774750D01*
X5209082Y773785D01*
X5194604Y774852D01*
X5191150Y768807D01*
G37*
G36*
X9184843Y753922D02*
G01*
X9249257Y753922D01*
X9249257Y842213D01*
X9249562Y843635D01*
X9246158Y843635D01*
X9246158Y787603D01*
X9245549Y784250D01*
X9243923Y781253D01*
X9241332Y778967D01*
X9238132Y777697D01*
X9224213Y774750D01*
X9209074Y773785D01*
X9194596Y774852D01*
X9191142Y768807D01*
G37*
G36*
X750773Y753922D02*
G01*
X815187Y753922D01*
X808888Y768807D01*
X801674Y781253D01*
X800455Y784860D01*
X800608Y788619D01*
X802132Y792124D01*
X804824Y794766D01*
X808329Y796290D01*
X814374Y797560D01*
X825855Y801878D01*
X836625Y807720D01*
X846429Y815086D01*
X852982Y821639D01*
X856284Y823823D01*
X860196Y824636D01*
X864057Y823823D01*
X867359Y821639D01*
X873912Y815086D01*
X883716Y807720D01*
X894486Y801878D01*
X905967Y797560D01*
X917905Y794969D01*
X930148Y794105D01*
X942390Y794969D01*
X954328Y797560D01*
X965809Y801878D01*
X976579Y807720D01*
X986383Y815086D01*
X992835Y821486D01*
X996137Y823721D01*
X999998Y824484D01*
X1003909Y823721D01*
X1007160Y821486D01*
X1013612Y815086D01*
X1023416Y807720D01*
X1034186Y801878D01*
X1045667Y797560D01*
X1057605Y794969D01*
X1069848Y794105D01*
X1082090Y794969D01*
X1094028Y797560D01*
X1105509Y801878D01*
X1116279Y807720D01*
X1126083Y815086D01*
X1132636Y821639D01*
X1135938Y823823D01*
X1139850Y824636D01*
X1143711Y823823D01*
X1147013Y821639D01*
X1153566Y815086D01*
X1163370Y807720D01*
X1173480Y802233D01*
X1173480Y843635D01*
X1162202Y843635D01*
X1157833Y844651D01*
X1154277Y847445D01*
X1152347Y851458D01*
X1152296Y855980D01*
X1154836Y867765D01*
X1155750Y879957D01*
X1154836Y892200D01*
X1152296Y903986D01*
X1152347Y908507D01*
X1154277Y912520D01*
X1157833Y915314D01*
X1162202Y916330D01*
X1173480Y916330D01*
X1173480Y957732D01*
X1163370Y952246D01*
X1153566Y944880D01*
X1147013Y938326D01*
X1143711Y936142D01*
X1139850Y935329D01*
X1135938Y936142D01*
X1132636Y938326D01*
X1126083Y944880D01*
X1116279Y952246D01*
X1105509Y958087D01*
X1094028Y962406D01*
X1082090Y964996D01*
X1069848Y965860D01*
X1057605Y964996D01*
X1045667Y962406D01*
X1034186Y958087D01*
X1023416Y952246D01*
X1013612Y944880D01*
X1007160Y938479D01*
X1003909Y936244D01*
X999998Y935482D01*
X996137Y936244D01*
X992835Y938479D01*
X986383Y944880D01*
X976579Y952246D01*
X965809Y958087D01*
X954328Y962406D01*
X942390Y964996D01*
X930148Y965860D01*
X917905Y964996D01*
X905967Y962406D01*
X894486Y958087D01*
X883716Y952246D01*
X873912Y944880D01*
X867359Y938326D01*
X864057Y936142D01*
X860196Y935329D01*
X856284Y936142D01*
X852982Y938326D01*
X846429Y944880D01*
X836625Y952246D01*
X825855Y958087D01*
X814374Y962406D01*
X802436Y964996D01*
X790194Y965860D01*
X777951Y964996D01*
X766013Y962406D01*
X754532Y958087D01*
X743762Y952246D01*
X733958Y944880D01*
X725271Y936244D01*
X717956Y926388D01*
X712063Y915669D01*
X707796Y904189D01*
X705205Y892200D01*
X704342Y879957D01*
X705205Y867765D01*
X707796Y855776D01*
X712063Y844296D01*
X717956Y833577D01*
X725271Y823721D01*
X733958Y815086D01*
X743762Y807720D01*
X748284Y804570D01*
X750112Y801471D01*
X750773Y797915D01*
G37*
G36*
X4750765Y753922D02*
G01*
X4815179Y753922D01*
X4808880Y768807D01*
X4801666Y781253D01*
X4800447Y784860D01*
X4800600Y788619D01*
X4802124Y792124D01*
X4804816Y794766D01*
X4808321Y796290D01*
X4814366Y797560D01*
X4825847Y801878D01*
X4836617Y807720D01*
X4846421Y815086D01*
X4852974Y821639D01*
X4856276Y823823D01*
X4860188Y824636D01*
X4864049Y823823D01*
X4867351Y821639D01*
X4873904Y815086D01*
X4883708Y807720D01*
X4894478Y801878D01*
X4905959Y797560D01*
X4917948Y794969D01*
X4930140Y794105D01*
X4942382Y794969D01*
X4954320Y797560D01*
X4965801Y801878D01*
X4976571Y807720D01*
X4986375Y815086D01*
X4992827Y821486D01*
X4996129Y823721D01*
X4999990Y824484D01*
X5003901Y823721D01*
X5007203Y821486D01*
X5013604Y815086D01*
X5023408Y807720D01*
X5034178Y801878D01*
X5045659Y797560D01*
X5057648Y794969D01*
X5069840Y794105D01*
X5082082Y794969D01*
X5094020Y797560D01*
X5105501Y801878D01*
X5116271Y807720D01*
X5126075Y815086D01*
X5132628Y821639D01*
X5135930Y823823D01*
X5139842Y824636D01*
X5143703Y823823D01*
X5147005Y821639D01*
X5153558Y815086D01*
X5163362Y807720D01*
X5173472Y802233D01*
X5173472Y843635D01*
X5162194Y843635D01*
X5157825Y844651D01*
X5154320Y847445D01*
X5152339Y851458D01*
X5152288Y855980D01*
X5154828Y867765D01*
X5155742Y879957D01*
X5154828Y892200D01*
X5152288Y903986D01*
X5152339Y908507D01*
X5154320Y912520D01*
X5157825Y915314D01*
X5162194Y916330D01*
X5173472Y916330D01*
X5173472Y957732D01*
X5163362Y952246D01*
X5153558Y944880D01*
X5147005Y938326D01*
X5143703Y936142D01*
X5139842Y935329D01*
X5135930Y936142D01*
X5132628Y938326D01*
X5126075Y944880D01*
X5116271Y952246D01*
X5105501Y958087D01*
X5094020Y962406D01*
X5082082Y964996D01*
X5069840Y965860D01*
X5057648Y964996D01*
X5045659Y962406D01*
X5034178Y958087D01*
X5023408Y952246D01*
X5013604Y944880D01*
X5007203Y938479D01*
X5003901Y936244D01*
X4999990Y935482D01*
X4996129Y936244D01*
X4992827Y938479D01*
X4986375Y944880D01*
X4976571Y952246D01*
X4965801Y958087D01*
X4954320Y962406D01*
X4942382Y964996D01*
X4930140Y965860D01*
X4917948Y964996D01*
X4905959Y962406D01*
X4894478Y958087D01*
X4883708Y952246D01*
X4873904Y944880D01*
X4867351Y938326D01*
X4864049Y936142D01*
X4860188Y935329D01*
X4856276Y936142D01*
X4852974Y938326D01*
X4846421Y944880D01*
X4836617Y952246D01*
X4825847Y958087D01*
X4814366Y962406D01*
X4802428Y964996D01*
X4790186Y965860D01*
X4777994Y964996D01*
X4766005Y962406D01*
X4754524Y958087D01*
X4743754Y952246D01*
X4733950Y944880D01*
X4725314Y936244D01*
X4717948Y926388D01*
X4712055Y915669D01*
X4707788Y904189D01*
X4705197Y892200D01*
X4704334Y879957D01*
X4705197Y867765D01*
X4707788Y855776D01*
X4712055Y844296D01*
X4717948Y833577D01*
X4725314Y823721D01*
X4733950Y815086D01*
X4743754Y807720D01*
X4748276Y804570D01*
X4750104Y801471D01*
X4750765Y797915D01*
G37*
G36*
X6750761Y753922D02*
G01*
X6815175Y753922D01*
X6808876Y768807D01*
X6801713Y781253D01*
X6800443Y784860D01*
X6800596Y788619D01*
X6802120Y792124D01*
X6804812Y794766D01*
X6808317Y796290D01*
X6814413Y797560D01*
X6825894Y801878D01*
X6836613Y807720D01*
X6846417Y815086D01*
X6852970Y821639D01*
X6856272Y823823D01*
X6860184Y824636D01*
X6864045Y823823D01*
X6867347Y821639D01*
X6873900Y815086D01*
X6883704Y807720D01*
X6894474Y801878D01*
X6905955Y797560D01*
X6917944Y794969D01*
X6930136Y794105D01*
X6942378Y794969D01*
X6954367Y797560D01*
X6965848Y801878D01*
X6976567Y807720D01*
X6986371Y815086D01*
X6992823Y821486D01*
X6996125Y823721D01*
X6999986Y824484D01*
X7003897Y823721D01*
X7007199Y821486D01*
X7013600Y815086D01*
X7023404Y807720D01*
X7034174Y801878D01*
X7045655Y797560D01*
X7057644Y794969D01*
X7069836Y794105D01*
X7082078Y794969D01*
X7094067Y797560D01*
X7105548Y801878D01*
X7116267Y807720D01*
X7126071Y815086D01*
X7132624Y821639D01*
X7135926Y823823D01*
X7139838Y824636D01*
X7143699Y823823D01*
X7147001Y821639D01*
X7153554Y815086D01*
X7163358Y807720D01*
X7173468Y802233D01*
X7173468Y843635D01*
X7162190Y843635D01*
X7157821Y844651D01*
X7154316Y847445D01*
X7152335Y851458D01*
X7152284Y855980D01*
X7154875Y867765D01*
X7155738Y879957D01*
X7154875Y892200D01*
X7152284Y903986D01*
X7152335Y908507D01*
X7154316Y912520D01*
X7157821Y915314D01*
X7162190Y916330D01*
X7173468Y916330D01*
X7173468Y957732D01*
X7163358Y952246D01*
X7153554Y944880D01*
X7147001Y938326D01*
X7143699Y936142D01*
X7139838Y935329D01*
X7135926Y936142D01*
X7132624Y938326D01*
X7126071Y944880D01*
X7116267Y952246D01*
X7105548Y958087D01*
X7094067Y962406D01*
X7082078Y964996D01*
X7069836Y965860D01*
X7057644Y964996D01*
X7045655Y962406D01*
X7034174Y958087D01*
X7023404Y952246D01*
X7013600Y944880D01*
X7007199Y938479D01*
X7003897Y936244D01*
X6999986Y935482D01*
X6996125Y936244D01*
X6992823Y938479D01*
X6986371Y944880D01*
X6976567Y952246D01*
X6965848Y958087D01*
X6954367Y962406D01*
X6942378Y964996D01*
X6930136Y965860D01*
X6917944Y964996D01*
X6905955Y962406D01*
X6894474Y958087D01*
X6883704Y952246D01*
X6873900Y944880D01*
X6867347Y938326D01*
X6864045Y936142D01*
X6860184Y935329D01*
X6856272Y936142D01*
X6852970Y938326D01*
X6846417Y944880D01*
X6836613Y952246D01*
X6825894Y958087D01*
X6814413Y962406D01*
X6802424Y964996D01*
X6790181Y965860D01*
X6777990Y964996D01*
X6766001Y962406D01*
X6754520Y958087D01*
X6743750Y952246D01*
X6733946Y944880D01*
X6725310Y936244D01*
X6717944Y926388D01*
X6712102Y915669D01*
X6707784Y904189D01*
X6705193Y892200D01*
X6704330Y879957D01*
X6705193Y867765D01*
X6707784Y855776D01*
X6712102Y844296D01*
X6717944Y833577D01*
X6725310Y823721D01*
X6733946Y815086D01*
X6743750Y807720D01*
X6748272Y804570D01*
X6750100Y801471D01*
X6750761Y797915D01*
G37*
G36*
X8750757Y753922D02*
G01*
X8815171Y753922D01*
X8808872Y768807D01*
X8801709Y781253D01*
X8800439Y784860D01*
X8800592Y788619D01*
X8802116Y792124D01*
X8804859Y794766D01*
X8808313Y796290D01*
X8814409Y797560D01*
X8825890Y801878D01*
X8836609Y807720D01*
X8846413Y815086D01*
X8852966Y821639D01*
X8856268Y823823D01*
X8860180Y824636D01*
X8864041Y823823D01*
X8867343Y821639D01*
X8873896Y815086D01*
X8883700Y807720D01*
X8894470Y801878D01*
X8905951Y797560D01*
X8917940Y794969D01*
X8930132Y794105D01*
X8942374Y794969D01*
X8954363Y797560D01*
X8965844Y801878D01*
X8976563Y807720D01*
X8986367Y815086D01*
X8992819Y821486D01*
X8996121Y823721D01*
X8999982Y824484D01*
X9003893Y823721D01*
X9007195Y821486D01*
X9013596Y815086D01*
X9023400Y807720D01*
X9034170Y801878D01*
X9045651Y797560D01*
X9057640Y794969D01*
X9069832Y794105D01*
X9082074Y794969D01*
X9094063Y797560D01*
X9105544Y801878D01*
X9116263Y807720D01*
X9126067Y815086D01*
X9132620Y821639D01*
X9135922Y823823D01*
X9139834Y824636D01*
X9143695Y823823D01*
X9146997Y821639D01*
X9153550Y815086D01*
X9163354Y807720D01*
X9173464Y802233D01*
X9173464Y843635D01*
X9162237Y843635D01*
X9157817Y844651D01*
X9154312Y847445D01*
X9152331Y851458D01*
X9152280Y855980D01*
X9154871Y867765D01*
X9155734Y879957D01*
X9154871Y892200D01*
X9152280Y903986D01*
X9152331Y908507D01*
X9154312Y912520D01*
X9157817Y915314D01*
X9162237Y916330D01*
X9173464Y916330D01*
X9173464Y957732D01*
X9163354Y952246D01*
X9153550Y944880D01*
X9146997Y938326D01*
X9143695Y936142D01*
X9139834Y935329D01*
X9135922Y936142D01*
X9132620Y938326D01*
X9126067Y944880D01*
X9116263Y952246D01*
X9105544Y958087D01*
X9094063Y962406D01*
X9082074Y964996D01*
X9069832Y965860D01*
X9057640Y964996D01*
X9045651Y962406D01*
X9034170Y958087D01*
X9023400Y952246D01*
X9013596Y944880D01*
X9007195Y938479D01*
X9003893Y936244D01*
X8999982Y935482D01*
X8996121Y936244D01*
X8992819Y938479D01*
X8986367Y944880D01*
X8976563Y952246D01*
X8965844Y958087D01*
X8954363Y962406D01*
X8942374Y964996D01*
X8930132Y965860D01*
X8917940Y964996D01*
X8905951Y962406D01*
X8894470Y958087D01*
X8883700Y952246D01*
X8873896Y944880D01*
X8867343Y938326D01*
X8864041Y936142D01*
X8860180Y935329D01*
X8856268Y936142D01*
X8852966Y938326D01*
X8846413Y944880D01*
X8836609Y952246D01*
X8825890Y958087D01*
X8814409Y962406D01*
X8802420Y964996D01*
X8790178Y965860D01*
X8777986Y964996D01*
X8765997Y962406D01*
X8754516Y958087D01*
X8743746Y952246D01*
X8733942Y944880D01*
X8725306Y936244D01*
X8717940Y926388D01*
X8712098Y915669D01*
X8707780Y904189D01*
X8705189Y892200D01*
X8704326Y879957D01*
X8705189Y867765D01*
X8707780Y855776D01*
X8712098Y844296D01*
X8717940Y833577D01*
X8725306Y823721D01*
X8733942Y815086D01*
X8743746Y807720D01*
X8748268Y804570D01*
X8750096Y801471D01*
X8750757Y797915D01*
G37*
G36*
X2750769Y753922D02*
G01*
X2815183Y753922D01*
X2808884Y768807D01*
X2801670Y781253D01*
X2800451Y784860D01*
X2800604Y788619D01*
X2802128Y792124D01*
X2804820Y794766D01*
X2808325Y796290D01*
X2814370Y797560D01*
X2825851Y801878D01*
X2836621Y807720D01*
X2846425Y815086D01*
X2852978Y821639D01*
X2856280Y823823D01*
X2860192Y824636D01*
X2864053Y823823D01*
X2867355Y821639D01*
X2873908Y815086D01*
X2883712Y807720D01*
X2894482Y801878D01*
X2905963Y797560D01*
X2917952Y794969D01*
X2930144Y794105D01*
X2942386Y794969D01*
X2954324Y797560D01*
X2965805Y801878D01*
X2976575Y807720D01*
X2986379Y815086D01*
X2992831Y821486D01*
X2996133Y823721D01*
X2999994Y824484D01*
X3003905Y823721D01*
X3007207Y821486D01*
X3013608Y815086D01*
X3023412Y807720D01*
X3034182Y801878D01*
X3045663Y797560D01*
X3057652Y794969D01*
X3069844Y794105D01*
X3082086Y794969D01*
X3094024Y797560D01*
X3105505Y801878D01*
X3116275Y807720D01*
X3126079Y815086D01*
X3132632Y821639D01*
X3135934Y823823D01*
X3139846Y824636D01*
X3143707Y823823D01*
X3147009Y821639D01*
X3153562Y815086D01*
X3163366Y807720D01*
X3173476Y802233D01*
X3173476Y843635D01*
X3162198Y843635D01*
X3157829Y844651D01*
X3154324Y847445D01*
X3152343Y851458D01*
X3152292Y855980D01*
X3154832Y867765D01*
X3155746Y879957D01*
X3154832Y892200D01*
X3152292Y903986D01*
X3152343Y908507D01*
X3154324Y912520D01*
X3157829Y915314D01*
X3162198Y916330D01*
X3173476Y916330D01*
X3173476Y957732D01*
X3163366Y952246D01*
X3153562Y944880D01*
X3147009Y938326D01*
X3143707Y936142D01*
X3139846Y935329D01*
X3135934Y936142D01*
X3132632Y938326D01*
X3126079Y944880D01*
X3116275Y952246D01*
X3105505Y958087D01*
X3094024Y962406D01*
X3082086Y964996D01*
X3069844Y965860D01*
X3057652Y964996D01*
X3045663Y962406D01*
X3034182Y958087D01*
X3023412Y952246D01*
X3013608Y944880D01*
X3007207Y938479D01*
X3003905Y936244D01*
X2999994Y935482D01*
X2996133Y936244D01*
X2992831Y938479D01*
X2986379Y944880D01*
X2976575Y952246D01*
X2965805Y958087D01*
X2954324Y962406D01*
X2942386Y964996D01*
X2930144Y965860D01*
X2917952Y964996D01*
X2905963Y962406D01*
X2894482Y958087D01*
X2883712Y952246D01*
X2873908Y944880D01*
X2867355Y938326D01*
X2864053Y936142D01*
X2860192Y935329D01*
X2856280Y936142D01*
X2852978Y938326D01*
X2846425Y944880D01*
X2836621Y952246D01*
X2825851Y958087D01*
X2814370Y962406D01*
X2802432Y964996D01*
X2790190Y965860D01*
X2777998Y964996D01*
X2766009Y962406D01*
X2754528Y958087D01*
X2743758Y952246D01*
X2733954Y944880D01*
X2725318Y936244D01*
X2717952Y926388D01*
X2712059Y915669D01*
X2707792Y904189D01*
X2705201Y892200D01*
X2704338Y879957D01*
X2705201Y867765D01*
X2707792Y855776D01*
X2712059Y844296D01*
X2717952Y833577D01*
X2725318Y823721D01*
X2733954Y815086D01*
X2743758Y807720D01*
X2748280Y804570D01*
X2750108Y801471D01*
X2750769Y797915D01*
G37*
G36*
X4919675Y3766362D02*
G01*
X4919675Y3828643D01*
X4837277Y3828643D01*
X4843170Y3817924D01*
X4851704Y3806139D01*
X4861661Y3795522D01*
X4872888Y3786276D01*
X4885182Y3778453D01*
X4898339Y3772255D01*
X4912207Y3767785D01*
G37*
G36*
X4568647Y3393744D02*
G01*
X4633061Y3393744D01*
X4633061Y3466592D01*
X4626457Y3463290D01*
X4613757Y3454908D01*
X4602073Y3445103D01*
X4591608Y3434029D01*
X4582515Y3421837D01*
X4574946Y3408679D01*
G37*
G36*
X2568600Y3393744D02*
G01*
X2633065Y3393744D01*
X2633065Y3466592D01*
X2626461Y3463290D01*
X2613710Y3454908D01*
X2602077Y3445103D01*
X2591612Y3434029D01*
X2582519Y3421837D01*
X2574950Y3408679D01*
G37*
G36*
X4750765Y3393744D02*
G01*
X4815179Y3393744D01*
X4808880Y3408679D01*
X4801260Y3421837D01*
X4792167Y3434029D01*
X4781702Y3445103D01*
X4770069Y3454908D01*
X4757318Y3463290D01*
X4750765Y3466592D01*
G37*
G36*
X2750769Y3393744D02*
G01*
X2815183Y3393744D01*
X2808884Y3408679D01*
X2801264Y3421837D01*
X2792171Y3434029D01*
X2781706Y3445103D01*
X2770073Y3454908D01*
X2757322Y3463290D01*
X2750769Y3466592D01*
G37*
G36*
X8750757Y3393744D02*
G01*
X8815171Y3393744D01*
X8808872Y3408679D01*
X8801252Y3421837D01*
X8792159Y3434029D01*
X8781745Y3445103D01*
X8770061Y3454908D01*
X8757361Y3463290D01*
X8750757Y3466592D01*
G37*
G36*
X8568639Y3393744D02*
G01*
X8633053Y3393744D01*
X8633053Y3466592D01*
X8626449Y3463290D01*
X8613749Y3454908D01*
X8602065Y3445103D01*
X8591651Y3434029D01*
X8582558Y3421837D01*
X8574938Y3408679D01*
G37*
G36*
X6750761Y3393744D02*
G01*
X6815175Y3393744D01*
X6808876Y3408679D01*
X6801256Y3421837D01*
X6792163Y3434029D01*
X6781698Y3445103D01*
X6770065Y3454908D01*
X6757365Y3463290D01*
X6750761Y3466592D01*
G37*
G36*
X6568643Y3393744D02*
G01*
X6633057Y3393744D01*
X6633057Y3466592D01*
X6626453Y3463290D01*
X6613753Y3454908D01*
X6602069Y3445103D01*
X6591604Y3434029D01*
X6582562Y3421837D01*
X6574942Y3408679D01*
G37*
G36*
X9366961Y3393744D02*
G01*
X9431375Y3393744D01*
X9425076Y3408679D01*
X9417456Y3421837D01*
X9408363Y3434029D01*
X9397949Y3445103D01*
X9386265Y3454908D01*
X9373565Y3463290D01*
X9366961Y3466592D01*
G37*
G36*
X1184808Y3393744D02*
G01*
X1249273Y3393744D01*
X1249273Y3466592D01*
X1242669Y3463290D01*
X1229918Y3454908D01*
X1218285Y3445103D01*
X1207820Y3434029D01*
X1198727Y3421837D01*
X1191158Y3408679D01*
G37*
G36*
X750773Y3393744D02*
G01*
X815187Y3393744D01*
X808888Y3408679D01*
X801268Y3421837D01*
X792175Y3434029D01*
X781710Y3445103D01*
X770077Y3454908D01*
X757326Y3463290D01*
X750773Y3466592D01*
G37*
G36*
X568604Y3393744D02*
G01*
X633069Y3393744D01*
X633069Y3466592D01*
X626465Y3463290D01*
X613714Y3454908D01*
X602081Y3445103D01*
X591616Y3434029D01*
X582523Y3421837D01*
X574954Y3408679D01*
G37*
G36*
X9184843Y3393744D02*
G01*
X9249257Y3393744D01*
X9249257Y3466592D01*
X9242653Y3463290D01*
X9229953Y3454908D01*
X9218269Y3445103D01*
X9207855Y3434029D01*
X9198762Y3421837D01*
X9191142Y3408679D01*
G37*
G36*
X3184804Y3393744D02*
G01*
X3249269Y3393744D01*
X3249269Y3466592D01*
X3242665Y3463290D01*
X3229914Y3454908D01*
X3218281Y3445103D01*
X3207816Y3434029D01*
X3198723Y3421837D01*
X3191154Y3408679D01*
G37*
G36*
X3366973Y3393744D02*
G01*
X3431387Y3393744D01*
X3425088Y3408679D01*
X3417468Y3421837D01*
X3408375Y3434029D01*
X3397910Y3445103D01*
X3386277Y3454908D01*
X3373526Y3463290D01*
X3366973Y3466592D01*
G37*
G36*
X7184847Y3393744D02*
G01*
X7249261Y3393744D01*
X7249261Y3466592D01*
X7242657Y3463290D01*
X7229957Y3454908D01*
X7218273Y3445103D01*
X7207808Y3434029D01*
X7198766Y3421837D01*
X7191146Y3408679D01*
G37*
G36*
X5366969Y3393744D02*
G01*
X5431383Y3393744D01*
X5425084Y3408679D01*
X5417464Y3421837D01*
X5408371Y3434029D01*
X5397906Y3445103D01*
X5386273Y3454908D01*
X5373522Y3463290D01*
X5366969Y3466592D01*
G37*
G36*
X1366977Y3393744D02*
G01*
X1431391Y3393744D01*
X1425092Y3408679D01*
X1417472Y3421837D01*
X1408379Y3434029D01*
X1397914Y3445103D01*
X1386281Y3454908D01*
X1373530Y3463290D01*
X1366977Y3466592D01*
G37*
G36*
X7366965Y3393744D02*
G01*
X7431379Y3393744D01*
X7425080Y3408679D01*
X7417460Y3421837D01*
X7408367Y3434029D01*
X7397902Y3445103D01*
X7386269Y3454908D01*
X7373569Y3463290D01*
X7366965Y3466592D01*
G37*
G36*
X1246174Y916330D02*
G01*
X1287576Y916330D01*
X1282039Y926388D01*
X1274724Y936244D01*
X1266037Y944880D01*
X1256233Y952246D01*
X1246174Y957732D01*
G37*
G36*
X7246162Y916330D02*
G01*
X7287564Y916330D01*
X7282027Y926388D01*
X7274712Y936244D01*
X7266025Y944880D01*
X7256221Y952246D01*
X7246162Y957732D01*
G37*
G36*
X3246170Y916330D02*
G01*
X3287572Y916330D01*
X3282035Y926388D01*
X3274720Y936244D01*
X3266033Y944880D01*
X3256229Y952246D01*
X3246170Y957732D01*
G37*
G36*
X5246166Y916330D02*
G01*
X5287568Y916330D01*
X5282031Y926388D01*
X5274716Y936244D01*
X5266029Y944880D01*
X5256225Y952246D01*
X5246166Y957732D01*
G37*
G36*
X9246158Y916330D02*
G01*
X9287560Y916330D01*
X9282023Y926388D01*
X9274708Y936244D01*
X9266021Y944880D01*
X9256217Y952246D01*
X9246158Y957732D01*
G37*
G36*
X5184851Y3393744D02*
G01*
X5249265Y3393744D01*
X5249265Y3466592D01*
X5242661Y3463290D01*
X5229961Y3454908D01*
X5218277Y3445103D01*
X5207812Y3434029D01*
X5198719Y3421837D01*
X5191150Y3408679D01*
G37*
G36*
X4633061Y3173222D02*
G01*
X4633061Y3246069D01*
X4568647Y3246069D01*
X4574946Y3231184D01*
X4582515Y3217976D01*
X4591608Y3205784D01*
X4602073Y3194710D01*
X4613757Y3184906D01*
X4626457Y3176574D01*
G37*
G36*
X2633065Y3173222D02*
G01*
X2633065Y3246069D01*
X2568600Y3246069D01*
X2574950Y3231184D01*
X2582519Y3217976D01*
X2591612Y3205784D01*
X2602077Y3194710D01*
X2613710Y3184906D01*
X2626461Y3176574D01*
G37*
G36*
X8633053Y3173222D02*
G01*
X8633053Y3246069D01*
X8568639Y3246069D01*
X8574938Y3231184D01*
X8582558Y3217976D01*
X8591651Y3205784D01*
X8602065Y3194710D01*
X8613749Y3184906D01*
X8626449Y3176574D01*
G37*
G36*
X6633057Y3173222D02*
G01*
X6633057Y3246069D01*
X6568643Y3246069D01*
X6574942Y3231184D01*
X6582562Y3217976D01*
X6591604Y3205784D01*
X6602069Y3194710D01*
X6613753Y3184906D01*
X6626453Y3176574D01*
G37*
G36*
X9366961Y3173222D02*
G01*
X9373565Y3176574D01*
X9386265Y3184906D01*
X9397949Y3194710D01*
X9408363Y3205784D01*
X9417456Y3217976D01*
X9425076Y3231184D01*
X9431375Y3246069D01*
X9366961Y3246069D01*
G37*
G36*
X7366965Y3173222D02*
G01*
X7373569Y3176574D01*
X7386269Y3184906D01*
X7397902Y3194710D01*
X7408367Y3205784D01*
X7417460Y3217976D01*
X7425080Y3231184D01*
X7431379Y3246069D01*
X7366965Y3246069D01*
G37*
G36*
X3366973Y3173222D02*
G01*
X3373526Y3176574D01*
X3386277Y3184906D01*
X3397910Y3194710D01*
X3408375Y3205784D01*
X3417468Y3217976D01*
X3425088Y3231184D01*
X3431387Y3246069D01*
X3366973Y3246069D01*
G37*
G36*
X633069Y3173222D02*
G01*
X633069Y3246069D01*
X568604Y3246069D01*
X574954Y3231184D01*
X582523Y3217976D01*
X591616Y3205784D01*
X602081Y3194710D01*
X613714Y3184906D01*
X626465Y3176574D01*
G37*
G36*
X5366969Y3173222D02*
G01*
X5373522Y3176574D01*
X5386273Y3184906D01*
X5397906Y3194710D01*
X5408371Y3205784D01*
X5417464Y3217976D01*
X5425084Y3231184D01*
X5431383Y3246069D01*
X5366969Y3246069D01*
G37*
G36*
X1366977Y3173222D02*
G01*
X1373530Y3176574D01*
X1386281Y3184906D01*
X1397914Y3194710D01*
X1408379Y3205784D01*
X1417472Y3217976D01*
X1425092Y3231184D01*
X1431391Y3246069D01*
X1366977Y3246069D01*
G37*
G36*
X2750464Y3156356D02*
G01*
X2753868Y3156356D01*
X2753868Y3212388D01*
X2754426Y3215741D01*
X2756103Y3218738D01*
X2758643Y3221024D01*
X2761843Y3222294D01*
X2775813Y3225241D01*
X2790901Y3226206D01*
X2805379Y3225139D01*
X2808884Y3231184D01*
X2815183Y3246069D01*
X2750769Y3246069D01*
X2750769Y3157778D01*
G37*
G36*
X4750460Y3156356D02*
G01*
X4753864Y3156356D01*
X4753864Y3212388D01*
X4754422Y3215741D01*
X4756099Y3218738D01*
X4758690Y3221024D01*
X4761839Y3222294D01*
X4775809Y3225241D01*
X4790897Y3226206D01*
X4805375Y3225139D01*
X4808880Y3231184D01*
X4815179Y3246069D01*
X4750765Y3246069D01*
X4750765Y3157778D01*
G37*
G36*
X8750452Y3156356D02*
G01*
X8753856Y3156356D01*
X8753856Y3212388D01*
X8754414Y3215741D01*
X8756091Y3218738D01*
X8758682Y3221024D01*
X8761831Y3222294D01*
X8775801Y3225241D01*
X8790940Y3226206D01*
X8805367Y3225139D01*
X8808872Y3231184D01*
X8815171Y3246069D01*
X8750757Y3246069D01*
X8750757Y3157778D01*
G37*
G36*
X6750456Y3156356D02*
G01*
X6753859Y3156356D01*
X6753859Y3212388D01*
X6754418Y3215741D01*
X6756095Y3218738D01*
X6758686Y3221024D01*
X6761835Y3222294D01*
X6775805Y3225241D01*
X6790944Y3226206D01*
X6805371Y3225139D01*
X6808876Y3231184D01*
X6815175Y3246069D01*
X6750761Y3246069D01*
X6750761Y3157778D01*
G37*
G36*
X750468Y3156356D02*
G01*
X753872Y3156356D01*
X753872Y3212388D01*
X754430Y3215741D01*
X756107Y3218738D01*
X758647Y3221024D01*
X761847Y3222294D01*
X775817Y3225241D01*
X790905Y3226206D01*
X805383Y3225139D01*
X808888Y3231184D01*
X815187Y3246069D01*
X750773Y3246069D01*
X750773Y3157778D01*
G37*
G36*
X8006334Y1724152D02*
G01*
X8031530Y1725625D01*
X8056575Y1729079D01*
X8081314Y1734413D01*
X8105495Y1741678D01*
X8129066Y1750771D01*
X8151875Y1761693D01*
X8173770Y1774291D01*
X8194598Y1788617D01*
X8214309Y1804466D01*
X8232648Y1821789D01*
X8249666Y1840534D01*
X8265159Y1860499D01*
X8279028Y1881632D01*
X8291220Y1903730D01*
X8301685Y1926742D01*
X8310321Y1950516D01*
X8317128Y1974850D01*
X8322005Y1999640D01*
X8324900Y2024735D01*
X8325916Y2050034D01*
X8324900Y2075281D01*
X8322005Y2100376D01*
X8317128Y2125167D01*
X8310321Y2149500D01*
X8301685Y2173274D01*
X8291220Y2196287D01*
X8279028Y2218385D01*
X8265159Y2239518D01*
X8249666Y2259482D01*
X8232648Y2278227D01*
X8214309Y2295550D01*
X8194598Y2311400D01*
X8173770Y2325725D01*
X8151875Y2338374D01*
X8129066Y2349246D01*
X8105495Y2358339D01*
X8081314Y2365603D01*
X8056575Y2370937D01*
X8031530Y2374392D01*
X8006334Y2375865D01*
X7981035Y2375357D01*
X7955889Y2372918D01*
X7930997Y2368550D01*
X7906512Y2362200D01*
X7882636Y2354021D01*
X7859420Y2344013D01*
X7837068Y2332228D01*
X7815681Y2318766D01*
X7795412Y2303678D01*
X7776362Y2287066D01*
X7758633Y2269032D01*
X7742428Y2249678D01*
X7727696Y2229104D01*
X7714640Y2207463D01*
X7703312Y2184857D01*
X7693761Y2161489D01*
X7686040Y2137410D01*
X7680198Y2112822D01*
X7676286Y2087829D01*
X7674356Y2062632D01*
X7674356Y2037384D01*
X7676286Y2012188D01*
X7680198Y1987194D01*
X7686040Y1962607D01*
X7693761Y1938528D01*
X7703312Y1915160D01*
X7714640Y1892554D01*
X7727696Y1870913D01*
X7742428Y1850389D01*
X7758633Y1830984D01*
X7776362Y1812950D01*
X7795412Y1796338D01*
X7815681Y1781251D01*
X7837068Y1767789D01*
X7859420Y1756003D01*
X7882636Y1745996D01*
X7906512Y1737817D01*
X7930997Y1731518D01*
X7955889Y1727098D01*
X7981035Y1724660D01*
G37*
G36*
X930148Y3034131D02*
G01*
X942390Y3034995D01*
X954328Y3037636D01*
X965809Y3041904D01*
X976579Y3047796D01*
X986383Y3055112D01*
X992835Y3061563D01*
X996137Y3063748D01*
X999998Y3064510D01*
X1003909Y3063748D01*
X1007160Y3061563D01*
X1013612Y3055112D01*
X1023416Y3047796D01*
X1034186Y3041904D01*
X1045667Y3037636D01*
X1057605Y3034995D01*
X1069848Y3034131D01*
X1082090Y3034995D01*
X1094028Y3037636D01*
X1105509Y3041904D01*
X1116279Y3047796D01*
X1126083Y3055112D01*
X1132636Y3061665D01*
X1135938Y3063849D01*
X1139850Y3064662D01*
X1143711Y3063849D01*
X1147013Y3061665D01*
X1153566Y3055112D01*
X1163370Y3047796D01*
X1174140Y3041904D01*
X1185621Y3037636D01*
X1197559Y3034995D01*
X1209802Y3034131D01*
X1222044Y3034995D01*
X1233982Y3037636D01*
X1245463Y3041904D01*
X1256233Y3047796D01*
X1266037Y3055112D01*
X1274724Y3063798D01*
X1282039Y3073603D01*
X1287932Y3084322D01*
X1292199Y3095802D01*
X1294790Y3107791D01*
X1295704Y3120034D01*
X1294790Y3132226D01*
X1292199Y3144215D01*
X1287932Y3155696D01*
X1282039Y3166465D01*
X1274724Y3176270D01*
X1266037Y3184906D01*
X1251712Y3195472D01*
X1249883Y3198571D01*
X1249273Y3202076D01*
X1249273Y3246069D01*
X1184808Y3246069D01*
X1191158Y3231184D01*
X1198321Y3218738D01*
X1199540Y3215132D01*
X1199388Y3211372D01*
X1197864Y3207867D01*
X1195171Y3205226D01*
X1191666Y3203752D01*
X1185621Y3202432D01*
X1174140Y3198114D01*
X1163370Y3192272D01*
X1153566Y3184906D01*
X1147013Y3178352D01*
X1143711Y3176168D01*
X1139850Y3175406D01*
X1135938Y3176168D01*
X1132636Y3178352D01*
X1126083Y3184906D01*
X1116279Y3192272D01*
X1105509Y3198114D01*
X1094028Y3202432D01*
X1082090Y3205022D01*
X1069848Y3205886D01*
X1057605Y3205022D01*
X1045667Y3202432D01*
X1034186Y3198114D01*
X1023416Y3192272D01*
X1013612Y3184906D01*
X1007160Y3178505D01*
X1003909Y3176270D01*
X999998Y3175508D01*
X996137Y3176270D01*
X992835Y3178505D01*
X986383Y3184906D01*
X976579Y3192272D01*
X965809Y3198114D01*
X954328Y3202432D01*
X942390Y3205022D01*
X930148Y3205886D01*
X917905Y3205022D01*
X905967Y3202432D01*
X894486Y3198114D01*
X883716Y3192272D01*
X873912Y3184906D01*
X867359Y3178352D01*
X864057Y3176168D01*
X860196Y3175406D01*
X856284Y3176168D01*
X852982Y3178352D01*
X846429Y3184906D01*
X836625Y3192272D01*
X826566Y3197758D01*
X826566Y3156356D01*
X837793Y3156356D01*
X842162Y3155391D01*
X845718Y3152597D01*
X847699Y3148533D01*
X847699Y3144062D01*
X845159Y3132226D01*
X844296Y3120034D01*
X845159Y3107791D01*
X847699Y3096006D01*
X847699Y3091484D01*
X845718Y3087471D01*
X842162Y3084677D01*
X837793Y3083661D01*
X826566Y3083661D01*
X826566Y3042259D01*
X836625Y3047796D01*
X846429Y3055112D01*
X852982Y3061665D01*
X856284Y3063849D01*
X860196Y3064662D01*
X864057Y3063849D01*
X867359Y3061665D01*
X873912Y3055112D01*
X883716Y3047796D01*
X894486Y3041904D01*
X905967Y3037636D01*
X917905Y3034995D01*
G37*
G36*
X4753864Y3042259D02*
G01*
X4753864Y3083661D01*
X4712462Y3083661D01*
X4717948Y3073603D01*
X4725314Y3063798D01*
X4733950Y3055112D01*
X4743754Y3047796D01*
G37*
G36*
X2753868Y3042259D02*
G01*
X2753868Y3083661D01*
X2712466Y3083661D01*
X2717952Y3073603D01*
X2725318Y3063798D01*
X2733954Y3055112D01*
X2743758Y3047796D01*
G37*
G36*
X8930132Y3034131D02*
G01*
X8942374Y3034995D01*
X8954363Y3037636D01*
X8965844Y3041904D01*
X8976563Y3047796D01*
X8986367Y3055112D01*
X8992819Y3061563D01*
X8996121Y3063748D01*
X8999982Y3064510D01*
X9003893Y3063748D01*
X9007195Y3061563D01*
X9013596Y3055112D01*
X9023400Y3047796D01*
X9034170Y3041904D01*
X9045651Y3037636D01*
X9057640Y3034995D01*
X9069832Y3034131D01*
X9082074Y3034995D01*
X9094063Y3037636D01*
X9105544Y3041904D01*
X9116263Y3047796D01*
X9126067Y3055112D01*
X9132620Y3061665D01*
X9135922Y3063849D01*
X9139834Y3064662D01*
X9143695Y3063849D01*
X9146997Y3061665D01*
X9153550Y3055112D01*
X9163354Y3047796D01*
X9174124Y3041904D01*
X9185605Y3037636D01*
X9197594Y3034995D01*
X9209786Y3034131D01*
X9222028Y3034995D01*
X9234017Y3037636D01*
X9245498Y3041904D01*
X9256217Y3047796D01*
X9266021Y3055112D01*
X9274708Y3063798D01*
X9282023Y3073603D01*
X9287916Y3084322D01*
X9292183Y3095802D01*
X9294825Y3107791D01*
X9295688Y3120034D01*
X9294825Y3132226D01*
X9292183Y3144215D01*
X9287916Y3155696D01*
X9282023Y3166465D01*
X9274708Y3176270D01*
X9266021Y3184906D01*
X9251746Y3195472D01*
X9249918Y3198571D01*
X9249257Y3202076D01*
X9249257Y3246069D01*
X9184843Y3246069D01*
X9191142Y3231184D01*
X9198305Y3218738D01*
X9199575Y3215132D01*
X9199422Y3211372D01*
X9197848Y3207867D01*
X9195155Y3205226D01*
X9191650Y3203752D01*
X9185605Y3202432D01*
X9174124Y3198114D01*
X9163354Y3192272D01*
X9153550Y3184906D01*
X9146997Y3178352D01*
X9143695Y3176168D01*
X9139834Y3175406D01*
X9135922Y3176168D01*
X9132620Y3178352D01*
X9126067Y3184906D01*
X9116263Y3192272D01*
X9105544Y3198114D01*
X9094063Y3202432D01*
X9082074Y3205022D01*
X9069832Y3205886D01*
X9057640Y3205022D01*
X9045651Y3202432D01*
X9034170Y3198114D01*
X9023400Y3192272D01*
X9013596Y3184906D01*
X9007195Y3178505D01*
X9003893Y3176270D01*
X8999982Y3175508D01*
X8996121Y3176270D01*
X8992819Y3178505D01*
X8986367Y3184906D01*
X8976563Y3192272D01*
X8965844Y3198114D01*
X8954363Y3202432D01*
X8942374Y3205022D01*
X8930132Y3205886D01*
X8917940Y3205022D01*
X8905951Y3202432D01*
X8894470Y3198114D01*
X8883700Y3192272D01*
X8873896Y3184906D01*
X8867343Y3178352D01*
X8864041Y3176168D01*
X8860180Y3175406D01*
X8856268Y3176168D01*
X8852966Y3178352D01*
X8846413Y3184906D01*
X8836609Y3192272D01*
X8826550Y3197758D01*
X8826550Y3156356D01*
X8837777Y3156356D01*
X8842197Y3155391D01*
X8845702Y3152597D01*
X8847683Y3148533D01*
X8847734Y3144062D01*
X8845143Y3132226D01*
X8844280Y3120034D01*
X8845143Y3107791D01*
X8847734Y3096006D01*
X8847683Y3091484D01*
X8845702Y3087471D01*
X8842197Y3084677D01*
X8837777Y3083661D01*
X8826550Y3083661D01*
X8826550Y3042259D01*
X8836609Y3047796D01*
X8846413Y3055112D01*
X8852966Y3061665D01*
X8856268Y3063849D01*
X8860180Y3064662D01*
X8864041Y3063849D01*
X8867343Y3061665D01*
X8873896Y3055112D01*
X8883700Y3047796D01*
X8894470Y3041904D01*
X8905951Y3037636D01*
X8917940Y3034995D01*
G37*
G36*
X6753859Y3042259D02*
G01*
X6753859Y3083661D01*
X6712458Y3083661D01*
X6717944Y3073603D01*
X6725310Y3063798D01*
X6733946Y3055112D01*
X6743750Y3047796D01*
G37*
G36*
X8753856Y3042259D02*
G01*
X8753856Y3083661D01*
X8712454Y3083661D01*
X8717940Y3073603D01*
X8725306Y3063798D01*
X8733942Y3055112D01*
X8743746Y3047796D01*
G37*
G36*
X6930136Y3034131D02*
G01*
X6942378Y3034995D01*
X6954367Y3037636D01*
X6965848Y3041904D01*
X6976567Y3047796D01*
X6986371Y3055112D01*
X6992823Y3061563D01*
X6996125Y3063748D01*
X6999986Y3064510D01*
X7003897Y3063748D01*
X7007199Y3061563D01*
X7013600Y3055112D01*
X7023404Y3047796D01*
X7034174Y3041904D01*
X7045655Y3037636D01*
X7057644Y3034995D01*
X7069836Y3034131D01*
X7082078Y3034995D01*
X7094067Y3037636D01*
X7105548Y3041904D01*
X7116267Y3047796D01*
X7126071Y3055112D01*
X7132624Y3061665D01*
X7135926Y3063849D01*
X7139838Y3064662D01*
X7143699Y3063849D01*
X7147001Y3061665D01*
X7153554Y3055112D01*
X7163358Y3047796D01*
X7174128Y3041904D01*
X7185609Y3037636D01*
X7197598Y3034995D01*
X7209790Y3034131D01*
X7222032Y3034995D01*
X7234021Y3037636D01*
X7245502Y3041904D01*
X7256221Y3047796D01*
X7266025Y3055112D01*
X7274712Y3063798D01*
X7282027Y3073603D01*
X7287920Y3084322D01*
X7292187Y3095802D01*
X7294829Y3107791D01*
X7295692Y3120034D01*
X7294829Y3132226D01*
X7292187Y3144215D01*
X7287920Y3155696D01*
X7282027Y3166465D01*
X7274712Y3176270D01*
X7266025Y3184906D01*
X7251750Y3195472D01*
X7249871Y3198571D01*
X7249261Y3202076D01*
X7249261Y3246069D01*
X7184847Y3246069D01*
X7191146Y3231184D01*
X7198309Y3218738D01*
X7199579Y3215132D01*
X7199426Y3211372D01*
X7197852Y3207867D01*
X7195159Y3205226D01*
X7191654Y3203752D01*
X7185609Y3202432D01*
X7174128Y3198114D01*
X7163358Y3192272D01*
X7153554Y3184906D01*
X7147001Y3178352D01*
X7143699Y3176168D01*
X7139838Y3175406D01*
X7135926Y3176168D01*
X7132624Y3178352D01*
X7126071Y3184906D01*
X7116267Y3192272D01*
X7105548Y3198114D01*
X7094067Y3202432D01*
X7082078Y3205022D01*
X7069836Y3205886D01*
X7057644Y3205022D01*
X7045655Y3202432D01*
X7034174Y3198114D01*
X7023404Y3192272D01*
X7013600Y3184906D01*
X7007199Y3178505D01*
X7003897Y3176270D01*
X6999986Y3175508D01*
X6996125Y3176270D01*
X6992823Y3178505D01*
X6986371Y3184906D01*
X6976567Y3192272D01*
X6965848Y3198114D01*
X6954367Y3202432D01*
X6942378Y3205022D01*
X6930136Y3205886D01*
X6917944Y3205022D01*
X6905955Y3202432D01*
X6894474Y3198114D01*
X6883704Y3192272D01*
X6873900Y3184906D01*
X6867347Y3178352D01*
X6864045Y3176168D01*
X6860184Y3175406D01*
X6856272Y3176168D01*
X6852970Y3178352D01*
X6846417Y3184906D01*
X6836613Y3192272D01*
X6826554Y3197758D01*
X6826554Y3156356D01*
X6837781Y3156356D01*
X6842150Y3155391D01*
X6845706Y3152597D01*
X6847687Y3148533D01*
X6847738Y3144062D01*
X6845147Y3132226D01*
X6844284Y3120034D01*
X6845147Y3107791D01*
X6847738Y3096006D01*
X6847687Y3091484D01*
X6845706Y3087471D01*
X6842150Y3084677D01*
X6837781Y3083661D01*
X6826554Y3083661D01*
X6826554Y3042259D01*
X6836613Y3047796D01*
X6846417Y3055112D01*
X6852970Y3061665D01*
X6856272Y3063849D01*
X6860184Y3064662D01*
X6864045Y3063849D01*
X6867347Y3061665D01*
X6873900Y3055112D01*
X6883704Y3047796D01*
X6894474Y3041904D01*
X6905955Y3037636D01*
X6917944Y3034995D01*
G37*
G36*
X753872Y3042259D02*
G01*
X753872Y3083661D01*
X712470Y3083661D01*
X717956Y3073603D01*
X725271Y3063798D01*
X733958Y3055112D01*
X743762Y3047796D01*
G37*
G36*
X2930144Y3034131D02*
G01*
X2942386Y3034995D01*
X2954324Y3037636D01*
X2965805Y3041904D01*
X2976575Y3047796D01*
X2986379Y3055112D01*
X2992831Y3061563D01*
X2996133Y3063748D01*
X2999994Y3064510D01*
X3003905Y3063748D01*
X3007207Y3061563D01*
X3013608Y3055112D01*
X3023412Y3047796D01*
X3034182Y3041904D01*
X3045663Y3037636D01*
X3057652Y3034995D01*
X3069844Y3034131D01*
X3082086Y3034995D01*
X3094024Y3037636D01*
X3105505Y3041904D01*
X3116275Y3047796D01*
X3126079Y3055112D01*
X3132632Y3061665D01*
X3135934Y3063849D01*
X3139846Y3064662D01*
X3143707Y3063849D01*
X3147009Y3061665D01*
X3153562Y3055112D01*
X3163366Y3047796D01*
X3174136Y3041904D01*
X3185617Y3037636D01*
X3197606Y3034995D01*
X3209798Y3034131D01*
X3222040Y3034995D01*
X3233978Y3037636D01*
X3245459Y3041904D01*
X3256229Y3047796D01*
X3266033Y3055112D01*
X3274720Y3063798D01*
X3282035Y3073603D01*
X3287928Y3084322D01*
X3292195Y3095802D01*
X3294786Y3107791D01*
X3295700Y3120034D01*
X3294786Y3132226D01*
X3292195Y3144215D01*
X3287928Y3155696D01*
X3282035Y3166465D01*
X3274720Y3176270D01*
X3266033Y3184906D01*
X3251708Y3195472D01*
X3249879Y3198571D01*
X3249269Y3202076D01*
X3249269Y3246069D01*
X3184804Y3246069D01*
X3191154Y3231184D01*
X3198317Y3218738D01*
X3199536Y3215132D01*
X3199384Y3211372D01*
X3197860Y3207867D01*
X3195167Y3205226D01*
X3191662Y3203752D01*
X3185617Y3202432D01*
X3174136Y3198114D01*
X3163366Y3192272D01*
X3153562Y3184906D01*
X3147009Y3178352D01*
X3143707Y3176168D01*
X3139846Y3175406D01*
X3135934Y3176168D01*
X3132632Y3178352D01*
X3126079Y3184906D01*
X3116275Y3192272D01*
X3105505Y3198114D01*
X3094024Y3202432D01*
X3082086Y3205022D01*
X3069844Y3205886D01*
X3057652Y3205022D01*
X3045663Y3202432D01*
X3034182Y3198114D01*
X3023412Y3192272D01*
X3013608Y3184906D01*
X3007207Y3178505D01*
X3003905Y3176270D01*
X2999994Y3175508D01*
X2996133Y3176270D01*
X2992831Y3178505D01*
X2986379Y3184906D01*
X2976575Y3192272D01*
X2965805Y3198114D01*
X2954324Y3202432D01*
X2942386Y3205022D01*
X2930144Y3205886D01*
X2917952Y3205022D01*
X2905963Y3202432D01*
X2894482Y3198114D01*
X2883712Y3192272D01*
X2873908Y3184906D01*
X2867355Y3178352D01*
X2864053Y3176168D01*
X2860192Y3175406D01*
X2856280Y3176168D01*
X2852978Y3178352D01*
X2846425Y3184906D01*
X2836621Y3192272D01*
X2826562Y3197758D01*
X2826562Y3156356D01*
X2837789Y3156356D01*
X2842158Y3155391D01*
X2845714Y3152597D01*
X2847695Y3148533D01*
X2847695Y3144062D01*
X2845155Y3132226D01*
X2844292Y3120034D01*
X2845155Y3107791D01*
X2847695Y3096006D01*
X2847695Y3091484D01*
X2845714Y3087471D01*
X2842158Y3084677D01*
X2837789Y3083661D01*
X2826562Y3083661D01*
X2826562Y3042259D01*
X2836621Y3047796D01*
X2846425Y3055112D01*
X2852978Y3061665D01*
X2856280Y3063849D01*
X2860192Y3064662D01*
X2864053Y3063849D01*
X2867355Y3061665D01*
X2873908Y3055112D01*
X2883712Y3047796D01*
X2894482Y3041904D01*
X2905963Y3037636D01*
X2917952Y3034995D01*
G37*
G36*
X4930140Y3034131D02*
G01*
X4942382Y3034995D01*
X4954320Y3037636D01*
X4965801Y3041904D01*
X4976571Y3047796D01*
X4986375Y3055112D01*
X4992827Y3061563D01*
X4996129Y3063748D01*
X4999990Y3064510D01*
X5003901Y3063748D01*
X5007203Y3061563D01*
X5013604Y3055112D01*
X5023408Y3047796D01*
X5034178Y3041904D01*
X5045659Y3037636D01*
X5057648Y3034995D01*
X5069840Y3034131D01*
X5082082Y3034995D01*
X5094020Y3037636D01*
X5105501Y3041904D01*
X5116271Y3047796D01*
X5126075Y3055112D01*
X5132628Y3061665D01*
X5135930Y3063849D01*
X5139842Y3064662D01*
X5143703Y3063849D01*
X5147005Y3061665D01*
X5153558Y3055112D01*
X5163362Y3047796D01*
X5174132Y3041904D01*
X5185613Y3037636D01*
X5197602Y3034995D01*
X5209794Y3034131D01*
X5222036Y3034995D01*
X5233974Y3037636D01*
X5245455Y3041904D01*
X5256225Y3047796D01*
X5266029Y3055112D01*
X5274716Y3063798D01*
X5282031Y3073603D01*
X5287924Y3084322D01*
X5292191Y3095802D01*
X5294782Y3107791D01*
X5295696Y3120034D01*
X5294782Y3132226D01*
X5292191Y3144215D01*
X5287924Y3155696D01*
X5282031Y3166465D01*
X5274716Y3176270D01*
X5266029Y3184906D01*
X5251754Y3195472D01*
X5249875Y3198571D01*
X5249265Y3202076D01*
X5249265Y3246069D01*
X5184851Y3246069D01*
X5191150Y3231184D01*
X5198313Y3218738D01*
X5199583Y3215132D01*
X5199430Y3211372D01*
X5197856Y3207867D01*
X5195163Y3205226D01*
X5191658Y3203752D01*
X5185613Y3202432D01*
X5174132Y3198114D01*
X5163362Y3192272D01*
X5153558Y3184906D01*
X5147005Y3178352D01*
X5143703Y3176168D01*
X5139842Y3175406D01*
X5135930Y3176168D01*
X5132628Y3178352D01*
X5126075Y3184906D01*
X5116271Y3192272D01*
X5105501Y3198114D01*
X5094020Y3202432D01*
X5082082Y3205022D01*
X5069840Y3205886D01*
X5057648Y3205022D01*
X5045659Y3202432D01*
X5034178Y3198114D01*
X5023408Y3192272D01*
X5013604Y3184906D01*
X5007203Y3178505D01*
X5003901Y3176270D01*
X4999990Y3175508D01*
X4996129Y3176270D01*
X4992827Y3178505D01*
X4986375Y3184906D01*
X4976571Y3192272D01*
X4965801Y3198114D01*
X4954320Y3202432D01*
X4942382Y3205022D01*
X4930140Y3205886D01*
X4917948Y3205022D01*
X4905959Y3202432D01*
X4894478Y3198114D01*
X4883708Y3192272D01*
X4873904Y3184906D01*
X4867351Y3178352D01*
X4864049Y3176168D01*
X4860188Y3175406D01*
X4856276Y3176168D01*
X4852974Y3178352D01*
X4846421Y3184906D01*
X4836617Y3192272D01*
X4826558Y3197758D01*
X4826558Y3156356D01*
X4837785Y3156356D01*
X4842154Y3155391D01*
X4845710Y3152597D01*
X4847691Y3148533D01*
X4847691Y3144062D01*
X4845151Y3132226D01*
X4844288Y3120034D01*
X4845151Y3107791D01*
X4847691Y3096006D01*
X4847691Y3091484D01*
X4845710Y3087471D01*
X4842154Y3084677D01*
X4837785Y3083661D01*
X4826558Y3083661D01*
X4826558Y3042259D01*
X4836617Y3047796D01*
X4846421Y3055112D01*
X4852974Y3061665D01*
X4856276Y3063849D01*
X4860188Y3064662D01*
X4864049Y3063849D01*
X4867351Y3061665D01*
X4873904Y3055112D01*
X4883708Y3047796D01*
X4894478Y3041904D01*
X4905959Y3037636D01*
X4917948Y3034995D01*
G37*

%LPD*%
D10*
G01*
X1209802Y879982D03*
G01*
X1069847Y879982D03*
G01*
X930147Y879982D03*
G01*
X790194Y879982D03*
G01*
X3209797Y879982D03*
G01*
X3069843Y879982D03*
G01*
X2930143Y879982D03*
G01*
X2790190Y879982D03*
G01*
X5209793Y879982D03*
G01*
X5069840Y879982D03*
G01*
X4930140Y879982D03*
G01*
X4790186Y879982D03*
G01*
X7209815Y879982D03*
G01*
X7069861Y879982D03*
G01*
X6930161Y879982D03*
G01*
X6790207Y879982D03*
G01*
X9209811Y879982D03*
G01*
X9069857Y879982D03*
G01*
X8930157Y879982D03*
G01*
X8790203Y879982D03*
G01*
X790194Y3120009D03*
G01*
X930147Y3120009D03*
G01*
X1069847Y3120009D03*
G01*
X1209802Y3120009D03*
G01*
X2790190Y3120009D03*
G01*
X2930143Y3120009D03*
G01*
X3069843Y3120009D03*
G01*
X3209797Y3120009D03*
G01*
X8790203Y3120009D03*
G01*
X8930157Y3120009D03*
G01*
X9069857Y3120009D03*
G01*
X9209811Y3120009D03*
G01*
X6790207Y3120009D03*
G01*
X6930161Y3120009D03*
G01*
X7069861Y3120009D03*
G01*
X7209815Y3120009D03*
G01*
X4790186Y3120009D03*
G01*
X4930140Y3120009D03*
G01*
X5069840Y3120009D03*
G01*
X5209793Y3120009D03*
D11*
G01*
X1999995Y2050008D03*
D12*
G01*
X1999995Y2275001D03*
G01*
X1840890Y2209114D03*
G01*
X1775002Y2050008D03*
G01*
X1840890Y1890903D03*
G01*
X1999995Y1825015D03*
G01*
X2159101Y1890903D03*
G01*
X2224989Y2050008D03*
G01*
X2159101Y2209114D03*
D11*
G01*
X8000009Y2050008D03*
D12*
G01*
X8000009Y2275001D03*
G01*
X7840903Y2209114D03*
G01*
X7775016Y2050008D03*
G01*
X7840903Y1890903D03*
G01*
X8000009Y1825015D03*
G01*
X8159115Y1890903D03*
G01*
X8225002Y2050008D03*
G01*
X8159115Y2209114D03*
D13*
X691895Y710084D02*
G01*
X691895Y650082D01*
X1308100Y650082D02*
G01*
X1308100Y710084D01*
D14*
X1058981Y120014D02*
G01*
X938982Y120014D01*
D13*
X2691891Y710084D02*
G01*
X2691891Y650082D01*
X3308095Y650082D02*
G01*
X3308095Y710087D01*
D14*
X3058977Y120014D02*
G01*
X2938978Y120014D01*
D13*
X4691888Y710084D02*
G01*
X4691888Y650082D01*
X5308091Y650082D02*
G01*
X5308091Y710087D01*
D14*
X5058973Y120014D02*
G01*
X4938974Y120014D01*
D13*
X6691909Y710084D02*
G01*
X6691909Y650082D01*
X7308113Y650082D02*
G01*
X7308113Y710087D01*
D14*
X7058995Y120014D02*
G01*
X6938995Y120014D01*
D13*
X8691905Y710084D02*
G01*
X8691905Y650082D01*
X9308109Y650082D02*
G01*
X9308109Y710087D01*
D14*
X9058991Y120014D02*
G01*
X8938991Y120014D01*
D13*
X1308100Y3289904D02*
G01*
X1308100Y3349906D01*
X691895Y3349906D02*
G01*
X691895Y3289904D01*
D14*
X941014Y3879977D02*
G01*
X1061013Y3879977D01*
D13*
X3308095Y3289904D02*
G01*
X3308095Y3349906D01*
X2691891Y3349909D02*
G01*
X2691891Y3289904D01*
D14*
X2941010Y3879977D02*
G01*
X3061009Y3879977D01*
D13*
X9308109Y3289904D02*
G01*
X9308109Y3349906D01*
X8691905Y3349909D02*
G01*
X8691905Y3289904D01*
D14*
X8941023Y3879977D02*
G01*
X9061023Y3879977D01*
D13*
X7308113Y3289904D02*
G01*
X7308113Y3349906D01*
X6691909Y3349909D02*
G01*
X6691909Y3289904D01*
D14*
X6941027Y3879977D02*
G01*
X7061027Y3879977D01*
D13*
X5308091Y3289904D02*
G01*
X5308091Y3349906D01*
X4691888Y3349909D02*
G01*
X4691888Y3289904D01*
D14*
X4941006Y3879977D02*
G01*
X5061005Y3879977D01*
M02*
