G04 Layer: TopSilkscreenLayer*
G04 EasyEDA v6.5.9, 2022-09-16 17:49:15*
G04 a67cddfb3fce44daa9051d46cbbcc19f,10*
G04 Gerber Generator version 0.2*
G04 Scale: 100 percent, Rotated: No, Reflected: No *
G04 Dimensions in millimeters *
G04 leading zeros omitted , absolute positions ,4 integer and 5 decimal *
%FSLAX45Y45*%
%MOMM*%

%ADD10C,0.2032*%
%ADD11C,0.1524*%
%ADD12C,0.2540*%

%LPD*%
D10*
X3400043Y2202687D02*
G01*
X3400043Y1998218D01*
X3413506Y1957323D01*
X3440938Y1929892D01*
X3481831Y1916429D01*
X3509009Y1916429D01*
X3549904Y1929892D01*
X3577336Y1957323D01*
X3590797Y1998218D01*
X3590797Y2202687D01*
X3871722Y2161794D02*
G01*
X3844543Y2188971D01*
X3803650Y2202687D01*
X3749040Y2202687D01*
X3708145Y2188971D01*
X3680968Y2161794D01*
X3680968Y2134615D01*
X3694429Y2107184D01*
X3708145Y2093721D01*
X3735324Y2080005D01*
X3817365Y2052828D01*
X3844543Y2039112D01*
X3858259Y2025395D01*
X3871722Y1998218D01*
X3871722Y1957323D01*
X3844543Y1929892D01*
X3803650Y1916429D01*
X3749040Y1916429D01*
X3708145Y1929892D01*
X3680968Y1957323D01*
X3961891Y2202687D02*
G01*
X3961891Y1916429D01*
X3961891Y2202687D02*
G01*
X4084574Y2202687D01*
X4125468Y2188971D01*
X4139184Y2175510D01*
X4152645Y2148078D01*
X4152645Y2120900D01*
X4139184Y2093721D01*
X4125468Y2080005D01*
X4084574Y2066289D01*
X3961891Y2066289D02*
G01*
X4084574Y2066289D01*
X4125468Y2052828D01*
X4139184Y2039112D01*
X4152645Y2011934D01*
X4152645Y1970786D01*
X4139184Y1943607D01*
X4125468Y1929892D01*
X4084574Y1916429D01*
X3961891Y1916429D01*
X4452620Y2202687D02*
G01*
X4452620Y1916429D01*
X4643627Y2202687D02*
G01*
X4643627Y1916429D01*
X4452620Y2066289D02*
G01*
X4643627Y2066289D01*
X4801870Y2107184D02*
G01*
X4774438Y2093721D01*
X4747259Y2066289D01*
X4733543Y2025395D01*
X4733543Y1998218D01*
X4747259Y1957323D01*
X4774438Y1929892D01*
X4801870Y1916429D01*
X4842763Y1916429D01*
X4869941Y1929892D01*
X4897374Y1957323D01*
X4910836Y1998218D01*
X4910836Y2025395D01*
X4897374Y2066289D01*
X4869941Y2093721D01*
X4842763Y2107184D01*
X4801870Y2107184D01*
X5001006Y2202687D02*
G01*
X5001006Y1916429D01*
X5254497Y2202687D02*
G01*
X5254497Y1916429D01*
X5254497Y2066289D02*
G01*
X5227320Y2093721D01*
X5199888Y2107184D01*
X5158993Y2107184D01*
X5131815Y2093721D01*
X5104638Y2066289D01*
X5090922Y2025395D01*
X5090922Y1998218D01*
X5104638Y1957323D01*
X5131815Y1929892D01*
X5158993Y1916429D01*
X5199888Y1916429D01*
X5227320Y1929892D01*
X5254497Y1957323D01*
X5344413Y2025395D02*
G01*
X5508243Y2025395D01*
X5508243Y2052828D01*
X5494527Y2080005D01*
X5480811Y2093721D01*
X5453634Y2107184D01*
X5412740Y2107184D01*
X5385561Y2093721D01*
X5358129Y2066289D01*
X5344413Y2025395D01*
X5344413Y1998218D01*
X5358129Y1957323D01*
X5385561Y1929892D01*
X5412740Y1916429D01*
X5453634Y1916429D01*
X5480811Y1929892D01*
X5508243Y1957323D01*
X5598159Y2107184D02*
G01*
X5598159Y1916429D01*
X5598159Y2025395D02*
G01*
X5611875Y2066289D01*
X5639054Y2093721D01*
X5666231Y2107184D01*
X5707379Y2107184D01*
X6007354Y2107184D02*
G01*
X6089141Y1916429D01*
X6170929Y2107184D02*
G01*
X6089141Y1916429D01*
X6260845Y2148078D02*
G01*
X6288277Y2161794D01*
X6329172Y2202687D01*
X6329172Y1916429D01*
X6432804Y1984502D02*
G01*
X6419088Y1970786D01*
X6432804Y1957323D01*
X6446265Y1970786D01*
X6432804Y1984502D01*
X6536436Y2148078D02*
G01*
X6563613Y2161794D01*
X6604508Y2202687D01*
X6604508Y1916429D01*
D11*
X974600Y1173098D02*
G01*
X974600Y1095120D01*
X979680Y1079627D01*
X990094Y1069212D01*
X1005842Y1064132D01*
X1016256Y1064132D01*
X1031750Y1069212D01*
X1042164Y1079627D01*
X1047244Y1095120D01*
X1047244Y1173098D01*
X1154432Y1157604D02*
G01*
X1144018Y1168019D01*
X1128270Y1173098D01*
X1107696Y1173098D01*
X1091948Y1168019D01*
X1081534Y1157604D01*
X1081534Y1147190D01*
X1086868Y1136777D01*
X1091948Y1131443D01*
X1102362Y1126362D01*
X1133604Y1115948D01*
X1144018Y1110869D01*
X1149098Y1105535D01*
X1154432Y1095120D01*
X1154432Y1079627D01*
X1144018Y1069212D01*
X1128270Y1064132D01*
X1107696Y1064132D01*
X1091948Y1069212D01*
X1081534Y1079627D01*
X1188722Y1173098D02*
G01*
X1188722Y1064132D01*
X1188722Y1173098D02*
G01*
X1235458Y1173098D01*
X1250952Y1168019D01*
X1256286Y1162685D01*
X1261366Y1152270D01*
X1261366Y1141856D01*
X1256286Y1131443D01*
X1250952Y1126362D01*
X1235458Y1121282D01*
X1188722Y1121282D02*
G01*
X1235458Y1121282D01*
X1250952Y1115948D01*
X1256286Y1110869D01*
X1261366Y1100454D01*
X1261366Y1084706D01*
X1256286Y1074293D01*
X1250952Y1069212D01*
X1235458Y1064132D01*
X1188722Y1064132D01*
X1295656Y1152270D02*
G01*
X1306070Y1157604D01*
X1321564Y1173098D01*
X1321564Y1064132D01*
X2974599Y1173098D02*
G01*
X2974599Y1095120D01*
X2979679Y1079627D01*
X2990093Y1069212D01*
X3005841Y1064132D01*
X3016255Y1064132D01*
X3031749Y1069212D01*
X3042163Y1079627D01*
X3047243Y1095120D01*
X3047243Y1173098D01*
X3154431Y1157604D02*
G01*
X3144017Y1168019D01*
X3128269Y1173098D01*
X3107695Y1173098D01*
X3091947Y1168019D01*
X3081533Y1157604D01*
X3081533Y1147190D01*
X3086867Y1136777D01*
X3091947Y1131443D01*
X3102361Y1126362D01*
X3133603Y1115948D01*
X3144017Y1110869D01*
X3149097Y1105535D01*
X3154431Y1095120D01*
X3154431Y1079627D01*
X3144017Y1069212D01*
X3128269Y1064132D01*
X3107695Y1064132D01*
X3091947Y1069212D01*
X3081533Y1079627D01*
X3188721Y1173098D02*
G01*
X3188721Y1064132D01*
X3188721Y1173098D02*
G01*
X3235457Y1173098D01*
X3250951Y1168019D01*
X3256285Y1162685D01*
X3261365Y1152270D01*
X3261365Y1141856D01*
X3256285Y1131443D01*
X3250951Y1126362D01*
X3235457Y1121282D01*
X3188721Y1121282D02*
G01*
X3235457Y1121282D01*
X3250951Y1115948D01*
X3256285Y1110869D01*
X3261365Y1100454D01*
X3261365Y1084706D01*
X3256285Y1074293D01*
X3250951Y1069212D01*
X3235457Y1064132D01*
X3188721Y1064132D01*
X3300989Y1147190D02*
G01*
X3300989Y1152270D01*
X3306069Y1162685D01*
X3311149Y1168019D01*
X3321563Y1173098D01*
X3342391Y1173098D01*
X3352805Y1168019D01*
X3358139Y1162685D01*
X3363219Y1152270D01*
X3363219Y1141856D01*
X3358139Y1131443D01*
X3347725Y1115948D01*
X3295655Y1064132D01*
X3368299Y1064132D01*
X4974600Y1173098D02*
G01*
X4974600Y1095120D01*
X4979680Y1079627D01*
X4990094Y1069212D01*
X5005842Y1064132D01*
X5016256Y1064132D01*
X5031750Y1069212D01*
X5042164Y1079627D01*
X5047244Y1095120D01*
X5047244Y1173098D01*
X5154432Y1157604D02*
G01*
X5144018Y1168019D01*
X5128270Y1173098D01*
X5107696Y1173098D01*
X5091948Y1168019D01*
X5081534Y1157604D01*
X5081534Y1147190D01*
X5086868Y1136777D01*
X5091948Y1131443D01*
X5102362Y1126362D01*
X5133604Y1115948D01*
X5144018Y1110869D01*
X5149098Y1105535D01*
X5154432Y1095120D01*
X5154432Y1079627D01*
X5144018Y1069212D01*
X5128270Y1064132D01*
X5107696Y1064132D01*
X5091948Y1069212D01*
X5081534Y1079627D01*
X5188722Y1173098D02*
G01*
X5188722Y1064132D01*
X5188722Y1173098D02*
G01*
X5235458Y1173098D01*
X5250952Y1168019D01*
X5256286Y1162685D01*
X5261366Y1152270D01*
X5261366Y1141856D01*
X5256286Y1131443D01*
X5250952Y1126362D01*
X5235458Y1121282D01*
X5188722Y1121282D02*
G01*
X5235458Y1121282D01*
X5250952Y1115948D01*
X5256286Y1110869D01*
X5261366Y1100454D01*
X5261366Y1084706D01*
X5256286Y1074293D01*
X5250952Y1069212D01*
X5235458Y1064132D01*
X5188722Y1064132D01*
X5306070Y1173098D02*
G01*
X5363220Y1173098D01*
X5331978Y1131443D01*
X5347726Y1131443D01*
X5358140Y1126362D01*
X5363220Y1121282D01*
X5368300Y1105535D01*
X5368300Y1095120D01*
X5363220Y1079627D01*
X5352806Y1069212D01*
X5337312Y1064132D01*
X5321564Y1064132D01*
X5306070Y1069212D01*
X5300990Y1074293D01*
X5295656Y1084706D01*
X6974598Y1173098D02*
G01*
X6974598Y1095120D01*
X6979678Y1079627D01*
X6990092Y1069212D01*
X7005840Y1064132D01*
X7016254Y1064132D01*
X7031748Y1069212D01*
X7042162Y1079627D01*
X7047242Y1095120D01*
X7047242Y1173098D01*
X7154430Y1157604D02*
G01*
X7144016Y1168019D01*
X7128268Y1173098D01*
X7107694Y1173098D01*
X7091946Y1168019D01*
X7081532Y1157604D01*
X7081532Y1147190D01*
X7086866Y1136777D01*
X7091946Y1131443D01*
X7102360Y1126362D01*
X7133602Y1115948D01*
X7144016Y1110869D01*
X7149096Y1105535D01*
X7154430Y1095120D01*
X7154430Y1079627D01*
X7144016Y1069212D01*
X7128268Y1064132D01*
X7107694Y1064132D01*
X7091946Y1069212D01*
X7081532Y1079627D01*
X7188720Y1173098D02*
G01*
X7188720Y1064132D01*
X7188720Y1173098D02*
G01*
X7235456Y1173098D01*
X7250950Y1168019D01*
X7256284Y1162685D01*
X7261364Y1152270D01*
X7261364Y1141856D01*
X7256284Y1131443D01*
X7250950Y1126362D01*
X7235456Y1121282D01*
X7188720Y1121282D02*
G01*
X7235456Y1121282D01*
X7250950Y1115948D01*
X7256284Y1110869D01*
X7261364Y1100454D01*
X7261364Y1084706D01*
X7256284Y1074293D01*
X7250950Y1069212D01*
X7235456Y1064132D01*
X7188720Y1064132D01*
X7347724Y1173098D02*
G01*
X7295654Y1100454D01*
X7373632Y1100454D01*
X7347724Y1173098D02*
G01*
X7347724Y1064132D01*
X8974599Y1173098D02*
G01*
X8974599Y1095120D01*
X8979679Y1079627D01*
X8990093Y1069212D01*
X9005841Y1064132D01*
X9016255Y1064132D01*
X9031749Y1069212D01*
X9042163Y1079627D01*
X9047243Y1095120D01*
X9047243Y1173098D01*
X9154431Y1157604D02*
G01*
X9144017Y1168019D01*
X9128269Y1173098D01*
X9107695Y1173098D01*
X9091947Y1168019D01*
X9081533Y1157604D01*
X9081533Y1147190D01*
X9086867Y1136777D01*
X9091947Y1131443D01*
X9102361Y1126362D01*
X9133603Y1115948D01*
X9144017Y1110869D01*
X9149097Y1105535D01*
X9154431Y1095120D01*
X9154431Y1079627D01*
X9144017Y1069212D01*
X9128269Y1064132D01*
X9107695Y1064132D01*
X9091947Y1069212D01*
X9081533Y1079627D01*
X9188721Y1173098D02*
G01*
X9188721Y1064132D01*
X9188721Y1173098D02*
G01*
X9235457Y1173098D01*
X9250951Y1168019D01*
X9256285Y1162685D01*
X9261365Y1152270D01*
X9261365Y1141856D01*
X9256285Y1131443D01*
X9250951Y1126362D01*
X9235457Y1121282D01*
X9188721Y1121282D02*
G01*
X9235457Y1121282D01*
X9250951Y1115948D01*
X9256285Y1110869D01*
X9261365Y1100454D01*
X9261365Y1084706D01*
X9256285Y1074293D01*
X9250951Y1069212D01*
X9235457Y1064132D01*
X9188721Y1064132D01*
X9358139Y1173098D02*
G01*
X9306069Y1173098D01*
X9300989Y1126362D01*
X9306069Y1131443D01*
X9321563Y1136777D01*
X9337311Y1136777D01*
X9352805Y1131443D01*
X9363219Y1121282D01*
X9368299Y1105535D01*
X9368299Y1095120D01*
X9363219Y1079627D01*
X9352805Y1069212D01*
X9337311Y1064132D01*
X9321563Y1064132D01*
X9306069Y1069212D01*
X9300989Y1074293D01*
X9295655Y1084706D01*
X1025400Y2826900D02*
G01*
X1025400Y2904878D01*
X1020320Y2920372D01*
X1009906Y2930786D01*
X994158Y2935866D01*
X983744Y2935866D01*
X968250Y2930786D01*
X957836Y2920372D01*
X952756Y2904878D01*
X952756Y2826900D01*
X845568Y2842394D02*
G01*
X855982Y2831980D01*
X871730Y2826900D01*
X892304Y2826900D01*
X908052Y2831980D01*
X918466Y2842394D01*
X918466Y2852808D01*
X913132Y2863222D01*
X908052Y2868556D01*
X897638Y2873636D01*
X866396Y2884050D01*
X855982Y2889130D01*
X850902Y2894464D01*
X845568Y2904878D01*
X845568Y2920372D01*
X855982Y2930786D01*
X871730Y2935866D01*
X892304Y2935866D01*
X908052Y2930786D01*
X918466Y2920372D01*
X811278Y2826900D02*
G01*
X811278Y2935866D01*
X811278Y2826900D02*
G01*
X764542Y2826900D01*
X749048Y2831980D01*
X743714Y2837314D01*
X738634Y2847728D01*
X738634Y2858142D01*
X743714Y2868556D01*
X749048Y2873636D01*
X764542Y2878716D01*
X811278Y2878716D02*
G01*
X764542Y2878716D01*
X749048Y2884050D01*
X743714Y2889130D01*
X738634Y2899544D01*
X738634Y2915292D01*
X743714Y2925706D01*
X749048Y2930786D01*
X764542Y2935866D01*
X811278Y2935866D01*
X641860Y2842394D02*
G01*
X647194Y2831980D01*
X662688Y2826900D01*
X673102Y2826900D01*
X688850Y2831980D01*
X699010Y2847728D01*
X704344Y2873636D01*
X704344Y2899544D01*
X699010Y2920372D01*
X688850Y2930786D01*
X673102Y2935866D01*
X668022Y2935866D01*
X652274Y2930786D01*
X641860Y2920372D01*
X636780Y2904878D01*
X636780Y2899544D01*
X641860Y2884050D01*
X652274Y2873636D01*
X668022Y2868556D01*
X673102Y2868556D01*
X688850Y2873636D01*
X699010Y2884050D01*
X704344Y2899544D01*
X3025399Y2826900D02*
G01*
X3025399Y2904878D01*
X3020319Y2920372D01*
X3009905Y2930786D01*
X2994157Y2935866D01*
X2983743Y2935866D01*
X2968249Y2930786D01*
X2957835Y2920372D01*
X2952755Y2904878D01*
X2952755Y2826900D01*
X2845567Y2842394D02*
G01*
X2855981Y2831980D01*
X2871729Y2826900D01*
X2892303Y2826900D01*
X2908051Y2831980D01*
X2918465Y2842394D01*
X2918465Y2852808D01*
X2913131Y2863222D01*
X2908051Y2868556D01*
X2897637Y2873636D01*
X2866395Y2884050D01*
X2855981Y2889130D01*
X2850901Y2894464D01*
X2845567Y2904878D01*
X2845567Y2920372D01*
X2855981Y2930786D01*
X2871729Y2935866D01*
X2892303Y2935866D01*
X2908051Y2930786D01*
X2918465Y2920372D01*
X2811277Y2826900D02*
G01*
X2811277Y2935866D01*
X2811277Y2826900D02*
G01*
X2764541Y2826900D01*
X2749047Y2831980D01*
X2743713Y2837314D01*
X2738633Y2847728D01*
X2738633Y2858142D01*
X2743713Y2868556D01*
X2749047Y2873636D01*
X2764541Y2878716D01*
X2811277Y2878716D02*
G01*
X2764541Y2878716D01*
X2749047Y2884050D01*
X2743713Y2889130D01*
X2738633Y2899544D01*
X2738633Y2915292D01*
X2743713Y2925706D01*
X2749047Y2930786D01*
X2764541Y2935866D01*
X2811277Y2935866D01*
X2631699Y2826900D02*
G01*
X2683515Y2935866D01*
X2704343Y2826900D02*
G01*
X2631699Y2826900D01*
X9025399Y2826900D02*
G01*
X9025399Y2904878D01*
X9020319Y2920372D01*
X9009905Y2930786D01*
X8994157Y2935866D01*
X8983743Y2935866D01*
X8968249Y2930786D01*
X8957835Y2920372D01*
X8952755Y2904878D01*
X8952755Y2826900D01*
X8845567Y2842394D02*
G01*
X8855981Y2831980D01*
X8871729Y2826900D01*
X8892303Y2826900D01*
X8908051Y2831980D01*
X8918465Y2842394D01*
X8918465Y2852808D01*
X8913131Y2863222D01*
X8908051Y2868556D01*
X8897637Y2873636D01*
X8866395Y2884050D01*
X8855981Y2889130D01*
X8850901Y2894464D01*
X8845567Y2904878D01*
X8845567Y2920372D01*
X8855981Y2930786D01*
X8871729Y2935866D01*
X8892303Y2935866D01*
X8908051Y2930786D01*
X8918465Y2920372D01*
X8811277Y2826900D02*
G01*
X8811277Y2935866D01*
X8811277Y2826900D02*
G01*
X8764541Y2826900D01*
X8749047Y2831980D01*
X8743713Y2837314D01*
X8738633Y2847728D01*
X8738633Y2858142D01*
X8743713Y2868556D01*
X8749047Y2873636D01*
X8764541Y2878716D01*
X8811277Y2878716D02*
G01*
X8764541Y2878716D01*
X8749047Y2884050D01*
X8743713Y2889130D01*
X8738633Y2899544D01*
X8738633Y2915292D01*
X8743713Y2925706D01*
X8749047Y2930786D01*
X8764541Y2935866D01*
X8811277Y2935866D01*
X8678435Y2826900D02*
G01*
X8693929Y2831980D01*
X8699009Y2842394D01*
X8699009Y2852808D01*
X8693929Y2863222D01*
X8683515Y2868556D01*
X8662687Y2873636D01*
X8647193Y2878716D01*
X8636779Y2889130D01*
X8631699Y2899544D01*
X8631699Y2915292D01*
X8636779Y2925706D01*
X8641859Y2930786D01*
X8657607Y2935866D01*
X8678435Y2935866D01*
X8693929Y2930786D01*
X8699009Y2925706D01*
X8704343Y2915292D01*
X8704343Y2899544D01*
X8699009Y2889130D01*
X8688849Y2878716D01*
X8673101Y2873636D01*
X8652273Y2868556D01*
X8641859Y2863222D01*
X8636779Y2852808D01*
X8636779Y2842394D01*
X8641859Y2831980D01*
X8657607Y2826900D01*
X8678435Y2826900D01*
X7025398Y2826900D02*
G01*
X7025398Y2904878D01*
X7020318Y2920372D01*
X7009904Y2930786D01*
X6994156Y2935866D01*
X6983742Y2935866D01*
X6968248Y2930786D01*
X6957834Y2920372D01*
X6952754Y2904878D01*
X6952754Y2826900D01*
X6845566Y2842394D02*
G01*
X6855980Y2831980D01*
X6871728Y2826900D01*
X6892302Y2826900D01*
X6908050Y2831980D01*
X6918464Y2842394D01*
X6918464Y2852808D01*
X6913130Y2863222D01*
X6908050Y2868556D01*
X6897636Y2873636D01*
X6866394Y2884050D01*
X6855980Y2889130D01*
X6850900Y2894464D01*
X6845566Y2904878D01*
X6845566Y2920372D01*
X6855980Y2930786D01*
X6871728Y2935866D01*
X6892302Y2935866D01*
X6908050Y2930786D01*
X6918464Y2920372D01*
X6811276Y2826900D02*
G01*
X6811276Y2935866D01*
X6811276Y2826900D02*
G01*
X6764540Y2826900D01*
X6749046Y2831980D01*
X6743712Y2837314D01*
X6738632Y2847728D01*
X6738632Y2858142D01*
X6743712Y2868556D01*
X6749046Y2873636D01*
X6764540Y2878716D01*
X6811276Y2878716D02*
G01*
X6764540Y2878716D01*
X6749046Y2884050D01*
X6743712Y2889130D01*
X6738632Y2899544D01*
X6738632Y2915292D01*
X6743712Y2925706D01*
X6749046Y2930786D01*
X6764540Y2935866D01*
X6811276Y2935866D01*
X6636778Y2863222D02*
G01*
X6641858Y2878716D01*
X6652272Y2889130D01*
X6668020Y2894464D01*
X6673100Y2894464D01*
X6688848Y2889130D01*
X6699008Y2878716D01*
X6704342Y2863222D01*
X6704342Y2858142D01*
X6699008Y2842394D01*
X6688848Y2831980D01*
X6673100Y2826900D01*
X6668020Y2826900D01*
X6652272Y2831980D01*
X6641858Y2842394D01*
X6636778Y2863222D01*
X6636778Y2889130D01*
X6641858Y2915292D01*
X6652272Y2930786D01*
X6668020Y2935866D01*
X6678434Y2935866D01*
X6693928Y2930786D01*
X6699008Y2920372D01*
X5025400Y2826900D02*
G01*
X5025400Y2904878D01*
X5020320Y2920372D01*
X5009906Y2930786D01*
X4994158Y2935866D01*
X4983744Y2935866D01*
X4968250Y2930786D01*
X4957836Y2920372D01*
X4952756Y2904878D01*
X4952756Y2826900D01*
X4845568Y2842394D02*
G01*
X4855982Y2831980D01*
X4871730Y2826900D01*
X4892304Y2826900D01*
X4908052Y2831980D01*
X4918466Y2842394D01*
X4918466Y2852808D01*
X4913132Y2863222D01*
X4908052Y2868556D01*
X4897638Y2873636D01*
X4866396Y2884050D01*
X4855982Y2889130D01*
X4850902Y2894464D01*
X4845568Y2904878D01*
X4845568Y2920372D01*
X4855982Y2930786D01*
X4871730Y2935866D01*
X4892304Y2935866D01*
X4908052Y2930786D01*
X4918466Y2920372D01*
X4811278Y2826900D02*
G01*
X4811278Y2935866D01*
X4811278Y2826900D02*
G01*
X4764542Y2826900D01*
X4749048Y2831980D01*
X4743714Y2837314D01*
X4738634Y2847728D01*
X4738634Y2858142D01*
X4743714Y2868556D01*
X4749048Y2873636D01*
X4764542Y2878716D01*
X4811278Y2878716D02*
G01*
X4764542Y2878716D01*
X4749048Y2884050D01*
X4743714Y2889130D01*
X4738634Y2899544D01*
X4738634Y2915292D01*
X4743714Y2925706D01*
X4749048Y2930786D01*
X4764542Y2935866D01*
X4811278Y2935866D01*
X4704344Y2847728D02*
G01*
X4693930Y2842394D01*
X4678436Y2826900D01*
X4678436Y2935866D01*
X4612904Y2826900D02*
G01*
X4628398Y2831980D01*
X4638812Y2847728D01*
X4644146Y2873636D01*
X4644146Y2889130D01*
X4638812Y2915292D01*
X4628398Y2930786D01*
X4612904Y2935866D01*
X4602490Y2935866D01*
X4586996Y2930786D01*
X4576582Y2915292D01*
X4571248Y2889130D01*
X4571248Y2873636D01*
X4576582Y2847728D01*
X4586996Y2831980D01*
X4602490Y2826900D01*
X4612904Y2826900D01*
G36*
X300024Y1700022D02*
G01*
X300024Y900023D01*
X1700022Y900023D01*
X1700022Y1700022D01*
G37*
G36*
X2300020Y1700022D02*
G01*
X2300020Y900023D01*
X3700018Y900023D01*
X3700018Y1700022D01*
G37*
G36*
X4300016Y1700022D02*
G01*
X4300016Y900023D01*
X5700014Y900023D01*
X5700014Y1700022D01*
G37*
G36*
X6300012Y1700022D02*
G01*
X6300012Y900023D01*
X7700009Y900023D01*
X7700009Y1700022D01*
G37*
G36*
X8300008Y1700022D02*
G01*
X8300008Y900023D01*
X9700006Y900023D01*
X9700006Y1700022D01*
G37*
G36*
X300024Y3199993D02*
G01*
X300024Y2399995D01*
X1700022Y2399995D01*
X1700022Y3199993D01*
G37*
G36*
X2300020Y3199993D02*
G01*
X2300020Y2399995D01*
X3700018Y2399995D01*
X3700018Y3199993D01*
G37*
G36*
X4300016Y3199993D02*
G01*
X4300016Y2399995D01*
X5700014Y2399995D01*
X5700014Y3199993D01*
G37*
G36*
X6300012Y3199993D02*
G01*
X6300012Y2399995D01*
X7700009Y2399995D01*
X7700009Y3199993D01*
G37*
G36*
X8300008Y3199993D02*
G01*
X8300008Y2399995D01*
X9700006Y2399995D01*
X9700006Y3199993D01*
G37*
D12*
X650013Y-370027D02*
G01*
X1350012Y-370027D01*
X650013Y989990D02*
G01*
X1350012Y989990D01*
X650013Y989990D02*
G01*
X650013Y831143D01*
X650013Y529026D02*
G01*
X650013Y-370027D01*
X1350012Y989990D02*
G01*
X1350012Y831136D01*
X1350012Y529033D02*
G01*
X1350012Y-370027D01*
X2650012Y-370027D02*
G01*
X3350011Y-370027D01*
X2650012Y989990D02*
G01*
X3350011Y989990D01*
X2650012Y989990D02*
G01*
X2650012Y831143D01*
X2650012Y529026D02*
G01*
X2650012Y-370027D01*
X3350011Y989990D02*
G01*
X3350011Y831136D01*
X3350011Y529033D02*
G01*
X3350011Y-370027D01*
X4650013Y-370027D02*
G01*
X5350012Y-370027D01*
X4650013Y989990D02*
G01*
X5350012Y989990D01*
X4650013Y989990D02*
G01*
X4650013Y831143D01*
X4650013Y529026D02*
G01*
X4650013Y-370027D01*
X5350012Y989990D02*
G01*
X5350012Y831136D01*
X5350012Y529033D02*
G01*
X5350012Y-370027D01*
X6650012Y-370027D02*
G01*
X7350010Y-370027D01*
X6650012Y989990D02*
G01*
X7350010Y989990D01*
X6650012Y989990D02*
G01*
X6650012Y831143D01*
X6650012Y529026D02*
G01*
X6650012Y-370027D01*
X7350010Y989990D02*
G01*
X7350010Y831136D01*
X7350010Y529033D02*
G01*
X7350010Y-370027D01*
X8650013Y-370027D02*
G01*
X9350011Y-370027D01*
X8650013Y989990D02*
G01*
X9350011Y989990D01*
X8650013Y989990D02*
G01*
X8650013Y831143D01*
X8650013Y529026D02*
G01*
X8650013Y-370027D01*
X9350011Y989990D02*
G01*
X9350011Y831136D01*
X9350011Y529033D02*
G01*
X9350011Y-370027D01*
X1349987Y4370026D02*
G01*
X649988Y4370026D01*
X1349987Y3010009D02*
G01*
X649988Y3010009D01*
X1349987Y3010009D02*
G01*
X1349987Y3168855D01*
X1349987Y3470973D02*
G01*
X1349987Y4370026D01*
X649988Y3010009D02*
G01*
X649988Y3168863D01*
X649988Y3470965D02*
G01*
X649988Y4370026D01*
X3349985Y4370026D02*
G01*
X2649987Y4370026D01*
X3349985Y3010009D02*
G01*
X2649987Y3010009D01*
X3349985Y3010009D02*
G01*
X3349985Y3168855D01*
X3349985Y3470973D02*
G01*
X3349985Y4370026D01*
X2649987Y3010009D02*
G01*
X2649987Y3168863D01*
X2649987Y3470965D02*
G01*
X2649987Y4370026D01*
X9349986Y4370026D02*
G01*
X8649987Y4370026D01*
X9349986Y3010009D02*
G01*
X8649987Y3010009D01*
X9349986Y3010009D02*
G01*
X9349986Y3168855D01*
X9349986Y3470973D02*
G01*
X9349986Y4370026D01*
X8649987Y3010009D02*
G01*
X8649987Y3168863D01*
X8649987Y3470965D02*
G01*
X8649987Y4370026D01*
X7349985Y4370026D02*
G01*
X6649986Y4370026D01*
X7349985Y3010009D02*
G01*
X6649986Y3010009D01*
X7349985Y3010009D02*
G01*
X7349985Y3168855D01*
X7349985Y3470973D02*
G01*
X7349985Y4370026D01*
X6649986Y3010009D02*
G01*
X6649986Y3168863D01*
X6649986Y3470965D02*
G01*
X6649986Y4370026D01*
X5349986Y4370026D02*
G01*
X4649988Y4370026D01*
X5349986Y3010009D02*
G01*
X4649988Y3010009D01*
X5349986Y3010009D02*
G01*
X5349986Y3168855D01*
X5349986Y3470973D02*
G01*
X5349986Y4370026D01*
X4649988Y3010009D02*
G01*
X4649988Y3168863D01*
X4649988Y3470965D02*
G01*
X4649988Y4370026D01*
M02*
