G04 Layer: BottomSolderMaskLayer*
G04 EasyEDA v6.5.9, 2022-09-16 17:49:15*
G04 a67cddfb3fce44daa9051d46cbbcc19f,10*
G04 Gerber Generator version 0.2*
G04 Scale: 100 percent, Rotated: No, Reflected: No *
G04 Dimensions in millimeters *
G04 leading zeros omitted , absolute positions ,4 integer and 5 decimal *
%FSLAX45Y45*%
%MOMM*%

%ADD10C,2.2016*%
%ADD11C,1.9016*%
%ADD12C,1.3015*%
%ADD13C,6.1016*%
%ADD14C,1.2700*%

%LPD*%
D10*
X691895Y710084D02*
G01*
X691895Y650082D01*
X1308100Y650082D02*
G01*
X1308100Y710084D01*
D11*
X1058981Y120014D02*
G01*
X938982Y120014D01*
D10*
X2691891Y710084D02*
G01*
X2691891Y650082D01*
X3308095Y650082D02*
G01*
X3308095Y710087D01*
D11*
X3058977Y120014D02*
G01*
X2938978Y120014D01*
D10*
X4691888Y710084D02*
G01*
X4691888Y650082D01*
X5308091Y650082D02*
G01*
X5308091Y710087D01*
D11*
X5058973Y120014D02*
G01*
X4938974Y120014D01*
D10*
X6691909Y710084D02*
G01*
X6691909Y650082D01*
X7308113Y650082D02*
G01*
X7308113Y710087D01*
D11*
X7058995Y120014D02*
G01*
X6938995Y120014D01*
D10*
X8691905Y710084D02*
G01*
X8691905Y650082D01*
X9308109Y650082D02*
G01*
X9308109Y710087D01*
D11*
X9058991Y120014D02*
G01*
X8938991Y120014D01*
D10*
X1308100Y3289904D02*
G01*
X1308100Y3349906D01*
X691895Y3349906D02*
G01*
X691895Y3289904D01*
D11*
X941014Y3879977D02*
G01*
X1061013Y3879977D01*
D10*
X3308095Y3289904D02*
G01*
X3308095Y3349906D01*
X2691891Y3349909D02*
G01*
X2691891Y3289904D01*
D11*
X2941010Y3879977D02*
G01*
X3061009Y3879977D01*
D10*
X9308109Y3289904D02*
G01*
X9308109Y3349906D01*
X8691905Y3349909D02*
G01*
X8691905Y3289904D01*
D11*
X8941023Y3879977D02*
G01*
X9061023Y3879977D01*
D10*
X7308113Y3289904D02*
G01*
X7308113Y3349906D01*
X6691909Y3349909D02*
G01*
X6691909Y3289904D01*
D11*
X6941027Y3879977D02*
G01*
X7061027Y3879977D01*
D10*
X5308091Y3289904D02*
G01*
X5308091Y3349906D01*
X4691888Y3349909D02*
G01*
X4691888Y3289904D01*
D11*
X4941006Y3879977D02*
G01*
X5061005Y3879977D01*
D12*
G01*
X1209802Y879982D03*
G01*
X1069847Y879982D03*
G01*
X930147Y879982D03*
G01*
X790194Y879982D03*
G01*
X3209797Y879982D03*
G01*
X3069843Y879982D03*
G01*
X2930143Y879982D03*
G01*
X2790190Y879982D03*
G01*
X5209793Y879982D03*
G01*
X5069840Y879982D03*
G01*
X4930140Y879982D03*
G01*
X4790186Y879982D03*
G01*
X7209815Y879982D03*
G01*
X7069861Y879982D03*
G01*
X6930161Y879982D03*
G01*
X6790207Y879982D03*
G01*
X9209811Y879982D03*
G01*
X9069857Y879982D03*
G01*
X8930157Y879982D03*
G01*
X8790203Y879982D03*
G01*
X790194Y3120009D03*
G01*
X930147Y3120009D03*
G01*
X1069847Y3120009D03*
G01*
X1209802Y3120009D03*
G01*
X2790190Y3120009D03*
G01*
X2930143Y3120009D03*
G01*
X3069843Y3120009D03*
G01*
X3209797Y3120009D03*
G01*
X8790203Y3120009D03*
G01*
X8930157Y3120009D03*
G01*
X9069857Y3120009D03*
G01*
X9209811Y3120009D03*
G01*
X6790207Y3120009D03*
G01*
X6930161Y3120009D03*
G01*
X7069861Y3120009D03*
G01*
X7209815Y3120009D03*
G01*
X4790186Y3120009D03*
G01*
X4930140Y3120009D03*
G01*
X5069840Y3120009D03*
G01*
X5209793Y3120009D03*
D13*
G01*
X1999995Y2050008D03*
D14*
G01*
X1999995Y2275001D03*
G01*
X1840890Y2209114D03*
G01*
X1775002Y2050008D03*
G01*
X1840890Y1890903D03*
G01*
X1999995Y1825015D03*
G01*
X2159101Y1890903D03*
G01*
X2224989Y2050008D03*
G01*
X2159101Y2209114D03*
D13*
G01*
X8000009Y2050008D03*
D14*
G01*
X8000009Y2275001D03*
G01*
X7840903Y2209114D03*
G01*
X7775016Y2050008D03*
G01*
X7840903Y1890903D03*
G01*
X8000009Y1825015D03*
G01*
X8159115Y1890903D03*
G01*
X8225002Y2050008D03*
G01*
X8159115Y2209114D03*
M02*
